<svg id="Logo" xmlns="http://www.w3.org/2000/svg" width="82.736" height="73.382" viewBox="0 0 82.736 73.382">
  <path id="Path_5390" data-name="Path 5390" d="M641.368,96.847A41.368,41.368,0,1,0,573.8,128.861l7.259-7.188,5.65,2.822,10.567-8.014,5.827,4.917,4.194-1.274,8.746,5.194L622.7,123.4l4.593,4.53a41.265,41.265,0,0,0,14.08-31.085" transform="translate(-558.632 -55.479)" fill="#ab182d"/>
  <path id="Path_5391" data-name="Path 5391" d="M581.386,109.948l-.057-.058v-9.266l.146-.183h6.188l.087.084v1.9l-.187.133h-1.115l-.084.054a4.946,4.946,0,0,1-.589-.034,1.692,1.692,0,0,0-.585.034l-.1-.054c-.04.007-.083.02-.137.035a.681.681,0,0,1-.134.019c-.21,0-.419-.006-.623-.013s-.413-.015-.624-.015a1.227,1.227,0,0,1,0,.392,2.886,2.886,0,0,0-.026.394c0,.193.008.38.026.559a4.847,4.847,0,0,1,.032.557,1.507,1.507,0,0,0,.3.045c.142.008.291.013.448.021s.309,0,.461,0h.332l1.689-.015.243.2v1.774a.175.175,0,0,1-.058.127.365.365,0,0,1-.129.086h-3.246l-.073.071v3.433l-.155.187h-1.943c-.051,0-.081-.045-.1-.129s-.033-.149-.042-.189Zm-.043-6.192.043.041.03-.041-.03-.045Zm.058-.859.027.058.029-.058-.029-.054Zm0,.574.027.04.029-.04-.029-.044Zm.074,6.292a.2.2,0,0,0,.14.078.388.388,0,0,1,.159.049l-.013-.056.187-.086a.175.175,0,0,0-.088-.144.317.317,0,0,0-.157-.058l.071.1a.1.1,0,0,1-.066.091.24.24,0,0,1-.121.038Zm.013-5.521.04.043.031-.043-.031-.043Zm.028-2.56a.465.465,0,0,1,.088-.035c.033-.013.058-.038.058-.064Zm.012,1.015h.046v-.041h-.046Zm.018-1.686.028.041.041-.041-.041-.043Zm0,2.275.028.041.041-.041-.041-.058Zm.14.168c-.058,0-.094.041-.112.115.076-.018.112-.058.112-.115m-.1,5.148.041.045v-.1Zm.017-6.075.024.03V102.5Zm.024,6.75c-.017,0-.024.009-.024.026h.024Zm0-7.294.075.1-.041-.158Zm.034.23.054-.088-.054-.042-.034.085Zm0,.671-.017-.041h-.017Zm-.034,1.028.088-.057h-.088Zm.017-2.544v.043l.017-.028Zm.228,2.072-.1-.256-.112.083Zm-.211,5.491h.054l-.054-.043Zm.011-1.829.043.043.045-.043-.045-.041Zm.1-5.319c-.04,0-.058.026-.058.071v.027Zm-.045-.886v.043l.045-.03Zm0,.6.045.043.028-.043-.028-.056Zm0,2.061v.041l.045-.03Zm0,.5.045.041.028-.041-.028-.043Zm0,1.688.045.056.028-.056-.028-.057Zm0,.673.045.039.028-.039-.028-.043Zm.058-3.721.03.045.028-.045-.028-.043Zm.03-.673h.043l-.043-.056Zm.011,8.268.032.041.056-.041-.056-.058Zm.017-7.423h.043l-.028-.026Zm.015,3.117h.071l-.071-.058Zm.013,4.061a.3.3,0,0,0,.162.035c.092.007.146.008.169.008l-.273-.1Zm.028-6.306a.615.615,0,0,0,.007.092.112.112,0,0,0,.051.079l.058-.085Zm0,6.121.03.028v-.056Zm.284-9.3-.254.058h.185Zm-.125.817v-.015l-.129-.129v.015Zm-.129,1.46.028.041.028-.041-.028-.047Zm0,2.3v.042l.028-.028Zm0,1.476.028.024.028-.024-.028-.047Zm0,2.414h.028v-.1h-.028Zm.017-5.95.112-.1-.058-.1Zm.054,1.588v-.043h-.043Zm-.028,4.4.028.045c.009-.009.018-.015.022-.007s0,.011-.007.02l.043.041.043-.041a.475.475,0,0,0-.1-.1Zm.028-7.434h.058V101.6H582Zm0,1.928.058.015a.1.1,0,0,0,.1-.078.429.429,0,0,0,.026-.137h-.069Zm0,6.807.114-.084h-.03Zm.015-4.631.043.056.043-.056-.043-.057Zm.029,3.33a.028.028,0,0,0-.016.023.044.044,0,0,1-.013.022.044.044,0,0,0,.013-.022.028.028,0,0,1,.016-.023m-.016-1.857.03.03v-.073Zm.03-5.194.056-.056h-.056Zm.1.346v-.2l-.1.118Zm-.1,6.378.1-.06h-.028Zm.1-7.838c-.038.009-.056.041-.056.1h.056Zm-.043,4.648h.043l-.043-.056Zm.043,4.433v-.043h-.043Zm-.028-7.223v.043l.028-.015Zm0,1.216.028.03v-.059Zm.215,5.435a.112.112,0,0,0,.106.127.912.912,0,0,0,.18.017h.027v-3.477l.057-.056-.028-.056.028-.13h.93l.058.043a.787.787,0,0,0,.269-.043.846.846,0,0,1,.275-.043l.228.086.084-.043h.531c0,.046-.025.069-.078.069a.107.107,0,0,0-.109.073l.056-.012.131.056.157-.186c.041,0,.114,0,.228.011a1.32,1.32,0,0,0,.344,0,1.4,1.4,0,0,0,.31-.054c.086-.03.135-.081.135-.159s-.051-.135-.146-.178a.612.612,0,0,0-.226-.061l-.073.082-.159-.082-.156.053-.156-.053-.1.053h-.886l-.071-.111-.043.111h-.83l.086-.184-.2.184h-.472l-.114-.111-.028.028v-.5l.2-.275-.059-.058-.142.245c0-.079,0-.151.009-.224a.453.453,0,0,1,.077-.219l-.086.043v-1.017l.042-.1-.042-.083v-1.543q.574-.06,1.136-.068t1.136,0c.116,0,.247,0,.4.015a.43.43,0,0,1,.337.172.237.237,0,0,1,.235-.164,2.17,2.17,0,0,1,.307-.023,3.16,3.16,0,0,1,.329.015c.115.009.224.013.328.013l.043-.114a.149.149,0,0,0-.078-.135.53.53,0,0,0-.187-.073c-.069-.013-.144-.022-.213-.028s-.127-.007-.164-.007a4.236,4.236,0,0,0-.473.028,3.63,3.63,0,0,1-.471.03l-.258-.1-.172.058-.127-.1-.075.054.017.088a3.6,3.6,0,0,0-.559-.043l-.058-.1-.088.1c-.149.018-.3.033-.456.043s-.3.013-.458.013H582.8c-.1,0-.209-.006-.315-.013a.491.491,0,0,0-.122.294c-.022.147-.039.309-.05.485s-.01.344-.006.507a3.1,3.1,0,0,1-.007.372l-.058.028.058.1a.91.91,0,0,0,.007.364,1.927,1.927,0,0,1,.036.364c0,.337-.006.673-.015,1.015s-.015.682-.015,1.017h-.071l.015-.043-.075-.056-.026.1.045.142h.142Zm-.187-4.878h.086l-.086-.1Zm.086.372c-.021,0-.047.021-.086.06h.086Zm-.041-3.758.041.041.045-.041-.045-.045Zm0,4.487.041.046.045-.046-.045-.056Zm.112,4.293-.112.056.056.129a.3.3,0,0,0,.056-.185m-.043-.146-.028.013.015.017a.048.048,0,0,0,.043-.017Zm.043-8.6v.039l.03-.028Zm.144,9,.028.045.03-.045-.03-.056Zm.069.1.058.016.1-.074-.071-.058Zm.088-9.195-.03.013.016.015a.064.064,0,0,0,.043-.015Zm.358.927-.287.074h.328l.043.027-.043.043c-.018,0-.037-.019-.056-.058s-.015-.065.015-.086m-.287,7.924h.1c0-.074-.035-.114-.1-.114Zm0,.385.028.043.046-.043-.046-.041Zm.028-6.792a.477.477,0,0,0,.08.128.168.168,0,0,0,.132.058l.318-.287a.142.142,0,0,1-.142-.085.143.143,0,0,0-.129-.088Zm.114,1.387c-.075.039-.114.084-.114.145a.267.267,0,0,0,.074-.016.055.055,0,0,0,.04-.058Zm-.114,2.133.058-.073h-.058Zm.014-.831.044.043c.009-.01.018-.013.022-.006s0,.013-.006.02l.04.043.031-.043c-.011-.019-.024-.037-.037-.057a.375.375,0,0,0-.05-.057Zm.1-3.387.059-.131-.016-.058-.1.142Zm-.056.187a.146.146,0,0,0,.056.112v-.112Zm.041,3.2-.025.043a.038.038,0,0,0,.013-.021s0-.01.012-.022m-.025,3.374.04.045.031-.045-.031-.041Zm.138-7.1-.067.035a.067.067,0,0,0-.046.064l.015.013Zm-.026,7.69.213-.411c0-.114-.059-.174-.187-.174l-.055.045a.3.3,0,0,1,.1.228.107.107,0,0,1-.073.114.1.1,0,0,0-.072.1Zm-.056-6.22.027.045.117-.045-.117-.057Zm.1,5.293a.3.3,0,0,1-.043.142.261.261,0,0,0-.041.142l.312-.185Zm-.017-5.007.047-.069-.047-.088-.055.043v.028Zm-.055,3.331h.055v-.069Zm.055-1.5.047.027-.047-.127Zm0,1.916h.047l-.047-.044Zm.088-1.829c-.037,0-.056.015-.056.043l.015.014a.057.057,0,0,0,.041-.057m-.041-3.289h.084c-.017-.021-.031-.028-.043-.028a.193.193,0,0,1-.041-.013Zm.015-2.073.026.041.258-.041-.258-.045ZM583,102.1a.043.043,0,0,0-.011.027c0-.019,0-.027.011-.027m-.011,4.189.026.043.073-.043-.073-.057Zm.069-2.443-.043.011.058.03.041-.03Zm.056-2.02h-.056l.114.057h-.058Zm-.056.488a.1.1,0,0,0,.114.112v-.112Zm.015.718a.12.12,0,0,0,.114.054l-.073-.1Zm0,6.144h.1l-.1-.054Zm.1.916a.1.1,0,0,0,.1-.071.3.3,0,0,0,.028-.129l-.228.1Zm-.084-5.848.026.043.043-.043-.043-.043Zm0,.387.026.043.043-.043-.043-.041Zm0,2.5h.043a.035.035,0,0,0-.017-.028Zm0,3.059.026.045.159-.045-.159-.056Zm.284-7.662a.347.347,0,0,0-.17.05.165.165,0,0,0-.088.152v.013a.263.263,0,0,1,.159-.094.111.111,0,0,0,.1-.121m-.258,1.958.058-.043h-.058Zm.1,2.763v-.073h-.045Zm-.03-3.092.03.043.028-.043-.028-.058Zm0,2.7a.4.4,0,0,0,.073.088l.028-.041-.028-.047-.015.019-.028-.075Zm.058.019a.052.052,0,0,0-.015.028c0-.019.008-.028.015-.028m.056-5.721v-.045h-.041Zm.116,2.6-.058-.145-.1.1Zm-.144-1.532.028.044.043-.044-.043-.056Zm0,.746h.058l-.03-.015Zm0,6.1.028.045.043-.045-.043-.041Zm.144-6.651a.373.373,0,0,1-.045-.047c-.009-.015-.031-.022-.071-.022Zm-.058,7.339.013-.059H583.3Zm-.041-9.139.041.041.043-.041-.043-.058Zm.054,2.631-.013.012.03.031.028-.031Zm-.013.886h.058v-.1h-.058Zm.058-2.016.041-.042h-.041Zm.056-1.015.03.045.026-.045-.026-.058Zm0,5.12.03.043.026-.043-.026-.057Zm.086-5.021.045.045.026-.045-.026-.054Zm.013.988.032.016v-.045Zm.131-.114h.056v-.159H583.7Zm.013,4.117-.013.016.028.043.028-.029Zm.058-5.4-.015.045c.011,0,.019-.008.032-.017Zm0,.912a.308.308,0,0,0,.092.226.3.3,0,0,0,.222.09Zm.086-.611-.03.013h.06Zm.129,4.889h.039l-.039-.1Zm.013-.729.026.058.047-.058-.047-.057Zm.131-4.405-.03.058.03.058-.03-.058Zm-.03,1.518.03.054.028-.054-.028-.058Zm.187-.2a.138.138,0,0,0-.116.045h.116Zm-.116,2.844.073-.039h-.073Zm.129,1.062.017.012.026-.027-.026-.029Zm.058-1.2v-.06h-.041Zm.011-2.791.059.042.029-.042-.029-.059Zm.2,0,.043.042.03-.042-.03-.059Zm.131,3.047V105l-.088.058Zm-.032,1.387.032.056.056-.056-.056-.06Zm.1-1.245h.046V105.2Zm.046.9v-.087l-.046.027Zm-.028-4.119.028.029v-.059Zm.069,2.8-.015.017.028.026.03-.026Zm.116-3.719.03.017v-.045Zm0,1.03.03.045.026-.045-.026-.043Zm.071,3.032v-.042h-.041Zm0-4.434c0,.049.015.079.043.086v-.086Zm.043,4.108.056-.06-.1-.071v.015Zm-.028-3.192.028.043.073-.043-.073-.041Zm.069,3.616c-.026,0-.041.017-.041.047l.015.011a.036.036,0,0,0,.041-.041Zm-.026.776.041.039.03-.039-.03-.044Zm.1-4.177.1-.073-.157-.1v.03Zm-.041-.817.026.03.028-.013-.028-.045Zm0,4.276.026.047.045-.047-.045-.041Zm.026,1.118a.14.14,0,0,0,.114-.056h-.114Zm.2-1.417a.082.082,0,0,0-.043.043.152.152,0,0,0-.015.058h.058Zm-.03-2.719h.043l-.013-.026Zm0,3.892.03.043.026-.043-.026-.057Zm.087-5.32.042.058.028-.058-.028-.058Zm0,5.033.042.043.028-.043-.028-.056Zm.042-.671h.043V105.2h-.043Zm0,1.146h.043l-.043-.043Zm.043-4.25v.045h.241l.06-.159Zm.056-1.013h.028v-.1h-.028Zm0,3.8.185-.112-.185-.058Zm.086,1.217c.009-.009.027-.04.06-.087h-.06Zm.131-.957.129-.072-.1-.087-.1.056Zm-.032,1.159v-.045h-.039Zm0-4.551h.1v-.041h-.1Zm.1.6h.041l-.041-.156Zm.181-.6a.162.162,0,0,0,.058.1l.03-.044a.093.093,0,0,0-.088-.057m0,3.532.146-.041-.071-.058Zm.019-.344a.14.14,0,0,1,.061-.039.22.22,0,0,0,.066-.045l-.028-.015Zm.056-4.072.013.028.03-.028-.03-.03Zm.013,5.173h.058v-.027h-.058Zm.058-3.945a.364.364,0,0,0,.157-.085l-.058-.016Zm.011,3.188.047.047.028-.047-.028-.041Zm.187-3.044-.084.058a.225.225,0,0,0-.073.071.212.212,0,0,0,.11-.031.1.1,0,0,0,.047-.1m-.129,3.144.03.046.043-.046-.043-.053Zm.129.1.2-.213h-.028Zm.015-3.876.028.043.031-.043-.031-.041Zm.028-.63h.045v-.041Zm0,.972h.06a.159.159,0,0,0-.06-.1Zm.031,2.932.014.017.026-.03-.026-.015Zm.128-2.743.072-.13a.145.145,0,0,1-.067.042.231.231,0,0,0-.062.043Zm.142,3.631c-.077,0-.113.036-.113.1a.673.673,0,0,0,.157-.1Zm-.1-.771.029.04.058-.04-.058-.061Zm0,.47.029.043c.008-.01.015-.011.021-.006s0,.013-.007.021l.056.041.031-.041-.031-.043c0,.007,0,.015-.012.015a.016.016,0,0,1-.016-.015l.016-.015-.058-.041Zm.087.015a.065.065,0,0,1-.026.015s-.009,0-.018.013a.064.064,0,0,1,.044-.028m.1-3.534.1-.056-.142-.185-.056.071Zm-.1,3.106a.831.831,0,0,0,.068.133.146.146,0,0,0,.13.067.2.2,0,0,0-.186-.217Zm0,1.2.056.045v-.145Zm.113-3.96.042.054.029-.054-.029-.058Zm.3-.529.031-.017-.1-.041Zm-.07.327.056-.043h-.056Zm.256-1.357.03.041.041-.041-.041-.045Zm.3.228h.043a.032.032,0,0,0-.016-.028Z" transform="translate(-558.632 -55.479)" fill="#fff"/>
  <path id="Path_5392" data-name="Path 5392" d="M594.663,110.52a.305.305,0,0,1-.166-.107.707.707,0,0,1-.108-.166h-.114l.315-.241-.185-.071-.13.056a.176.176,0,0,1,.015-.12c.02-.054.033-.093.041-.123l.145.1.056-.058.187.058.1-.243h.245l-.116.243.359-.243.183.144.344-.185a3.628,3.628,0,0,0,1.43-.5,4.326,4.326,0,0,0,1.131-.988,4.6,4.6,0,0,0,.736-1.311,4.259,4.259,0,0,0,.265-1.491,1.205,1.205,0,0,0-.045-.321,1.306,1.306,0,0,1-.041-.322,1.009,1.009,0,0,1,.03-.215l-.03-.028-.058.1a3.811,3.811,0,0,0-.235-.687c-.1-.218-.215-.439-.336-.657l.142-.1h-.256a2.331,2.331,0,0,0-.3-.411,3.524,3.524,0,0,0-.362-.36l-.058-.159-.086.058-.531-.327-.013-.086.286-.516.058.015-.144-.116a2.848,2.848,0,0,1-.187.322.472.472,0,0,1-.268.222l-.115-.041.183-.172-.1-.417-.157.133.13.269-.13.129-.342-.2-.114.071a1.086,1.086,0,0,1-.368-.088.907.907,0,0,0-.363-.069l-.1.013.1-.155-.2-.1-.226.133.026.011.159-.086.041.058-.082.142a3.383,3.383,0,0,0-1.059.15,5.429,5.429,0,0,0-.8.33c-.226.12-.421.228-.572.329a.749.749,0,0,1-.387.15l.058.043a4.242,4.242,0,0,0-.9,1.057,3.077,3.077,0,0,0-.456,1.318l-.088.041.041.041c0,.318.012.608.027.873a4.2,4.2,0,0,0,.1.768,4.375,4.375,0,0,0,.243.733,5.171,5.171,0,0,0,.417.776l-.058.155.043.045.1-.045.617.614-.088.144.017.015.155-.127a1.573,1.573,0,0,0,.421.3c.158.077.312.155.465.243v.028l-.383.071.1.2-.146-.06-.011.161a.281.281,0,0,0,.069.193.387.387,0,0,1,.1.177h-.052l-.4-.37a.289.289,0,0,0-.086-.181.463.463,0,0,0-.172-.094.424.424,0,0,0,.066.174c.035.047.068.095.106.14a1.063,1.063,0,0,1,.1.154.3.3,0,0,1,.053.177.757.757,0,0,1-.306-.069,2.105,2.105,0,0,1-.3-.182,2.692,2.692,0,0,1-.287-.237c-.09-.082-.169-.161-.232-.226l.056-.075-.056-.071-.06.088a4.872,4.872,0,0,1-1.245-1.74,5.331,5.331,0,0,1-.427-2.091,4.928,4.928,0,0,1,.416-2.013,5.167,5.167,0,0,1,1.129-1.635,5.394,5.394,0,0,1,1.665-1.11,5.1,5.1,0,0,1,2.011-.408,5.008,5.008,0,0,1,1.035.109,3.666,3.666,0,0,1,.978.351v.086l.1-.045a4.636,4.636,0,0,1,1.239.8,5.222,5.222,0,0,1,.936,1.107,4.876,4.876,0,0,1,.583,1.33,5.259,5.259,0,0,1,.2,1.456,5.149,5.149,0,0,1-.414,2.084,4.915,4.915,0,0,1-1.138,1.635,5.14,5.14,0,0,1-1.684,1.067,5.7,5.7,0,0,1-2.082.38,2.677,2.677,0,0,1-.488-.043Zm-4.249-5.721-.042.028.042.03.041-.03Zm.087.3-.046.013.057.03.058-.03Zm-.029-1.188.04.043.045-.043-.045-.056Zm.283.244V104.1H590.7Zm-.039,1.787.039.043.032-.043-.032-.056Zm.013,1.676.013.014.03-.033-.017-.01Zm.069-2.4.017-.03a.255.255,0,0,0-.06-.073v.03Zm.017,1.3.04.041.031-.041-.031-.043Zm.013-2.2.027.03V104.3Zm.027-.743.087-.142h-.028Zm0,1.072.059.058.028-.013-.056-.058Zm0,2.646.087-.041-.028-.017Zm.018-3.259a.227.227,0,0,0,.049.157.875.875,0,0,0,.119.114.58.58,0,0,0-.026-.177.132.132,0,0,0-.142-.094M590.9,107h.043v-.1Zm.1-3.047h.1l-.1-.1Zm.015-1.014.026.042.045-.042-.045-.043Zm0,.213.026.013v-.026Zm0,2.776.015.013.028-.03-.017-.026Zm.084-2.231h.088v-.041Zm.058-.472.03.059.028-.059-.028-.06Zm.03,4.963h.041v-.026h-.041Zm.011-5.749v.042l.03-.028Zm.03,4.533c0,.028.021.056.058.085v-.029a.105.105,0,0,0-.015-.056.041.041,0,0,0-.043-.03Zm0,.8h.058l-.058-.139Zm.071-4.831.045.042.03-.042-.03-.043Zm.133.57.2-.083-.245.043Zm.527,3.678-.06.026c-.065,0-.129-.08-.181-.241a3.5,3.5,0,0,1-.152-.556c-.044-.213-.078-.413-.1-.6a3.632,3.632,0,0,1-.032-.383,3.761,3.761,0,0,1,.052-.673,3.024,3.024,0,0,1,.159-.534,3.926,3.926,0,0,1,.248-.5c.1-.167.21-.36.324-.578a3.524,3.524,0,0,0,.686-.6,2.587,2.587,0,0,1,.718-.572l.155.116.058-.1h-.1c.007-.038.071-.077.19-.124s.253-.082.4-.119a3.209,3.209,0,0,1,.428-.086,2.52,2.52,0,0,1,.278-.028.5.5,0,0,1,.344.114l.2-.114h.157a.943.943,0,0,1,.193.02.749.749,0,0,1,.167.062.192.192,0,0,1,.085.133l.144-.058.084.058-.271.185-.113-.114-.044.028c0,.1.056.162.174.2a.893.893,0,0,0,.284.058l.015-.088-.086-.058.086-.14.2.114-.06-.144.344.144v.185l.058-.159a.888.888,0,0,1,.259.093,1.8,1.8,0,0,1,.278.2,2.437,2.437,0,0,1,.255.243,1.792,1.792,0,0,1,.18.212l.058-.028.056.145-.013.127a.262.262,0,0,1,.162.078,1.842,1.842,0,0,1,.187.18,1.1,1.1,0,0,1,.157.208.373.373,0,0,1,.066.18l-.071.127c.1,0,.172.074.233.224a2.968,2.968,0,0,1,.159.5,4.37,4.37,0,0,1,.092.565c.018.187.028.316.028.379a3.388,3.388,0,0,1-.55,1.945,4.4,4.4,0,0,1-1.495,1.359,3.157,3.157,0,0,0-.332.223.615.615,0,0,1-.365.121l-.086-.058-.073.1-.6.1-.1-.058.015-.045a.8.8,0,0,0-.263.045.872.872,0,0,1-.266.043,2.7,2.7,0,0,1-.555-.088,4.813,4.813,0,0,1-.749-.233,3.537,3.537,0,0,1-.671-.344.532.532,0,0,1-.286-.422v-.03a.388.388,0,0,1-.237-.1,1.663,1.663,0,0,1-.447-.524.72.72,0,0,1-.1-.249Zm-.527-4.92h.1a.172.172,0,0,0-.1-.058Zm.041.241c.008.022.021.044.034.074a.073.073,0,0,0,.065.045v-.119Zm.058,5.68c-.023,0-.032.013-.032.041l.032.031Zm.056-6.308.043.03.041-.03-.041-.041Zm0,1.4.043.04.041-.04-.041-.059Zm.043-1.26.013-.043-.045.069Zm0,5.936h.088l-.032-.043Zm.013-3.706.043.044v-.1Zm.056-1.144.019.029.011-.029a.063.063,0,0,0-.011-.029Zm.019-.657a.247.247,0,0,0,.061-.014c.021-.012.038-.027.038-.045Zm.026,4.348.073.1a.13.13,0,0,0,.114.053.142.142,0,0,0-.058-.112.227.227,0,0,0-.129-.041m.026-2.7.047.057.039-.057-.039-.057Zm.047-2.032.026.017.073-.1Zm.026.661-.026.013.013.027.043-.027Zm-.026,5.775a.161.161,0,0,0,.1-.056h-.1Zm.069-5.647.03.042.028-.042-.028-.06Zm.073-.688h.056v-.058h-.056Zm0,6.851c0,.019.011.03.035.043a.155.155,0,0,0,.06.013.04.04,0,0,0-.032-.041.2.2,0,0,0-.063-.015m.056-7.236.086-.142-.013-.015Zm0,6.519h.039v-.039h-.039Zm.086-5.691.058-.057H592.1Zm.174,6.634a.237.237,0,0,0-.174.116.415.415,0,0,0,.114-.02.1.1,0,0,0,.06-.1m.013-7.52.011-.017c0-.017-.013-.036-.049-.047a.182.182,0,0,0-.078-.02h.058Zm-.116,1.746.043.04v-.083Zm0,5.217a.377.377,0,0,1,.071.1l.032-.041c-.013-.018-.017-.041-.025-.052a.163.163,0,0,0-.035-.05Zm.015-7.322h.043l-.015-.026Zm.043,7.336a.042.042,0,0,1-.015.031.054.054,0,0,1,.015-.031m.013-5.033h.114l-.114-.158Zm.1,3.964.142-.175-.2.086Zm-.028,1.128-.028.028h.056Zm.084.43.045-.03-.1-.1-.056.013Zm-.056.473.056-.1h-.013l.013-.045-.056-.1-.056.1Zm.056-2.72h.045l-.045-.041Zm.015-2.117.03.047.028-.047-.028-.058Zm.013-1.615.034.015c.016,0,.024-.015.024-.043v-.017Zm.017,2.731c.18.419.344.764.493,1.031a2.344,2.344,0,0,0,.522.659,2.272,2.272,0,0,0,.729.4,6.887,6.887,0,0,0,1.117.264l1.058-.228.041-.071a6.356,6.356,0,0,0,.679-.517,2.8,2.8,0,0,0,.5-.562,2.4,2.4,0,0,0,.319-.678,3.157,3.157,0,0,0,.107-.843,2.553,2.553,0,0,0-.152-.89,2.689,2.689,0,0,0-.413-.727,3.139,3.139,0,0,0-.624-.587,5.729,5.729,0,0,0-.757-.458v-.1l-.1.057a2.946,2.946,0,0,1-.425-.028,3.428,3.428,0,0,0-.419-.029,1.518,1.518,0,0,0-.676.15,1.981,1.981,0,0,1-.645.193c-.249.239-.458.462-.634.666a2.7,2.7,0,0,0-.42.642,2.971,2.971,0,0,0-.23.727,5.462,5.462,0,0,0-.071.925m.1-2.244a.113.113,0,0,0-.1.071h.1Zm.056,4.02-.155.157h.084l.159-.1-.1-.114Zm-.056-.373.017-.03-.075-.069v.026Zm-.058,1.916h.058l-.058-.043Zm.075-5.692.024.058.03-.058-.03-.059Zm0,3.817.024.043.03-.043-.03-.041Zm.039-4.073-.015.012.03.028.017-.028Zm-.015,6.434h.047V109.7Zm.015-.615.032.041.041-.041-.041-.058Zm.116-7.081-.028.015.028.032.03-.032Zm0,.977-.028.011.028.028.03-.028Zm.058,4.16v-.06h-.028Zm0,2.073v-.043h-.028Zm-.014-7.309.014.03v-.071Zm0,.815.014.028.013-.028a.042.042,0,0,0-.013-.027Zm.141,4.791-.028.031.028.029.028-.029Zm-.015-4.962.043.043.045-.043-.045-.043Zm.043-.915h.056v-.041h-.056Zm.015,7.537.041.043v-.088Zm.015-.887a.141.141,0,0,0,.041.108.564.564,0,0,0,.09.063l.027-.015Zm.057-7.136.128-.1a.207.207,0,0,0-.159.058Zm-.031,1.971h.031l-.031-.026Zm0,4.709a.176.176,0,0,0,.146.086Zm.031,2.214.261-.026-.277.056Zm0-.527.057.041-.057-.1Zm.027-6.8.03.028v-.055Zm.088,7.335-.041.03-.032-.013.043-.045Zm.1-7.634-.1-.157-.058.056Zm-.029,5.263.076-.074-.16-.039Zm-.07.487.041.043.029-.043-.029-.056Zm.013,1.9c.067,0,.123.043.174.127a.288.288,0,0,1-.117-.026.11.11,0,0,1-.057-.1m.075-7.48-.018-.011-.029.011.017-.011Zm.058-1.588v-.041h-.058Zm-.058,7.237c0,.076.03.112.1.112,0-.075-.034-.112-.1-.112m.068-7.523.031.045.025-.045-.025-.041Zm.089,7.28-.017.015.03.03.013-.017Zm0,.5.026.057.043-.057-.043-.058Zm.026-5.6h.058V102.9H593.4Zm.058-.387a.417.417,0,0,0,.035.081.343.343,0,0,0,.051.062v-.143Zm.015,6.092.041.042V108.6Zm.041-.384a1.118,1.118,0,0,1,.078.2c.034.092.075.139.124.139a1.046,1.046,0,0,0-.036-.214c-.022-.1-.071-.145-.136-.145Zm.217,1.871-.032-.013.232.127.054-.013-.112-.445a.315.315,0,0,1-.086.124.2.2,0,0,1-.127.052l-.06-.017-.086-.245.058-.213c.067,0,.1.039.1.114s.032.116.1.116l.073-.056-.1-.245.054-.058.146.073.017.142.056.043.113-.155.245.039-.177.26-.1-.1-.084.056.113.127-.057.243.114.043-.057.114.068.129-.125-.056-.043.17a.19.19,0,0,1-.178-.129.192.192,0,0,0-.166-.127l-.026.013Zm-.187.144h-.03v-.03Zm.017-7.523.039.042.045-.042-.045-.057Zm.026-1.6a.259.259,0,0,0,.02.106.1.1,0,0,0,.092.049v-.155Zm.211-.1h.146l-.071-.1Zm.2,1.689.041-.044-.157-.187-.088.13Zm-.144-.487v.043l.028-.028Zm.073,6.392L594,108.6l-.071-.069-.045.069Zm.013-7.921.058.041.028-.041-.028-.06Zm.058,8.249.041-.043H594Zm.041-6.806h.03l-.03-.058Zm.23,6.664.056-.043a.088.088,0,0,0-.079-.093.565.565,0,0,0-.133-.021h-.074v.114Zm-.2-6.849.028-.03-.028-.041Zm.1.458c.009.018.022.044.037.076s.036.052.064.052l.056-.015Zm.187,8.079h-.187l.086-.1Zm.171-9.668a.278.278,0,0,0-.192.066,1.63,1.63,0,0,0-.151.134h.287Zm-.343,7.549h.043l-.043-.056Zm.287-6.676a.531.531,0,0,0-.125.144c-.03.056-.061.114-.091.172l.272-.2Zm-.2-.959h.056v-.041h-.056Zm.071,8.337.031.03v-.058Zm.229-7.036-.214.043c.028.009.063.024.106.035s.043.045-.006.079Zm-.2.3h.041v-.056h-.041Zm.042-1.843c.018,0,.044,0,.078-.007a.137.137,0,0,0,.078-.038h-.156Zm.011,7.836.046.04.042-.04-.042-.059Zm.088,1.9a1.523,1.523,0,0,1,.114.123.363.363,0,0,0,.13.09,1.531,1.531,0,0,1,.185-.335.38.38,0,0,1,.3-.205l.129.071.056-.058-.125-.159-.587.344.043.114-.015.045-.157-.1Zm.014-1.574h.043v-.042Zm.245-6.32a.179.179,0,0,0-.172.142.513.513,0,0,0,.172-.142m-.015,6.806.056-.041-.1-.2.043-.056H594.6Zm-.144-8.8.045.045.041-.045-.041-.056Zm0,.83.045.045.041-.045-.041-.054Zm0,.759.045.058.041-.058-.041-.056Zm.144-1.157h.056v-.086h-.056Zm0,.2h.056v-.043h-.056Zm.155,1.228a.438.438,0,0,0-.013-.114.081.081,0,0,0-.086-.058Zm0-1.387a.545.545,0,0,1-.029.2.783.783,0,0,0-.027.2.267.267,0,0,0,.12-.1,1.2,1.2,0,0,0,.082-.131l-.116-.172Zm.03,9.623.2-.155.174.056a.2.2,0,0,0-.131-.178l-.2-.1-.086.331Zm-.016-9.836.016.026.028-.026-.028-.015Zm.059,1.7.015.027.14-.056.215.056-.114-.2.073-.157v-.028Zm.073,6.792.058-.114a.162.162,0,0,0-.116.056Zm.14-7.279a.129.129,0,0,0-.108.052.2.2,0,0,0-.032.12c.026-.019.06-.04.094-.068a.12.12,0,0,0,.046-.1m.043-1.043h.073c-.007-.019-.022-.045-.031-.073a.236.236,0,0,0-.042-.073Zm.03,8.479-.03-.028h.06Zm.043,1.144.028.041.028-.041-.028-.058Zm.013-1.714a.139.139,0,0,0,.049.107.324.324,0,0,0,.108.048.138.138,0,0,0-.157-.155m.056-6.851.262-.028h-.3Zm.2,8.423-.127-.217-.075.058Zm-.183-9.913.024.045.043-.045-.043-.056Zm.056,1.533a.093.093,0,0,0,.077.093c.054.013.1.026.136.036v-.129Zm.069-1.387a.141.141,0,0,0,.118-.045h-.118Zm0,1.643h.058l-.058-.058Zm.03.228.043-.012-.015-.016Zm.028,6.778h.086v-.1Zm.03-8.206h.056v-.344Zm.03,7.621.026.057.028-.057-.028-.055Zm0,1.445h.026l-.026-.043Zm.2.243a.216.216,0,0,0-.088.02.083.083,0,0,0-.041.079.159.159,0,0,0,.086-.023.075.075,0,0,0,.043-.076m-.071-8.093c0,.036.013.062.041.07a.255.255,0,0,0,.088.015.067.067,0,0,0-.043-.071.8.8,0,0,1-.086-.03Zm.342.128-.3.056h.245Zm-.3,6.449.015.028a.129.129,0,0,0,.045-.1Zm.159,1.086c-.017-.065-.054-.1-.1-.1Zm-.058-8.836h.058l-.058-.043Zm.1.041a.126.126,0,0,0,.071.058.28.28,0,0,1,.085.045v-.1Zm0,8.982h.042v-.043Zm.1.213h.056v-.157h-.056Zm.015-9.481.043.045v-.086Zm.116,9.268h.155a1.664,1.664,0,0,0-.09-.177c-.047-.074-.091-.109-.138-.109Zm.139-7.4-.025.011.013.029.028-.029Zm0-1.648.061.174.058-.1-.1-.1Zm0,8.608a.117.117,0,0,0,.13.131.115.115,0,0,0-.13-.131m.016.787c.03-.008.045-.043.045-.1h-.045Zm.114-2.087.015.013.03-.025-.015-.015Zm0,1.489.03.011v-.041Zm.03.17.041-.043h-.041Zm.185-8.494c-.01-.039-.017-.077-.028-.114a.145.145,0,0,0-.056-.086v.056Zm-.084,8.01h.056v-.045h-.056Zm.056-8.453h.028l.116-.043-.058-.017Zm0,1.213.028.045.043-.045-.043-.056Zm0,.53.028.042.043-.042-.043-.057Zm0,5.436h.056a.078.078,0,0,1-.056-.027Zm.144-5.878a.827.827,0,0,0-.088.065.111.111,0,0,0-.041.092.1.1,0,0,0,.1-.051.237.237,0,0,0,.03-.106m-.043,7.535.043.058.028-.058-.028-.058Zm.013-7.192.015.042.026-.042-.011-.044Zm0,6.734.03.03v-.058Zm.129-8.735-.015.011.031.032.012-.032Zm.028,1.9a.094.094,0,0,0,.044.042.133.133,0,0,0,.057.014v-.056Zm.03.272-.03.015.03.025.026-.025Zm-.015-.472.041.041.03-.041-.03-.043Zm.071-1.415-.03.028.015.03.03-.03Zm.028,8.623.043.041.029-.041-.029-.06Zm.043-8.18.044-.073-.044-.056Zm0,1.358.029.013a.106.106,0,0,0,.07-.114Zm.129,6.521c-.007.028-.019.062-.03.1a.2.2,0,0,0,0,.1Zm-.03.486h.03l-.03-.045Zm.03-7.007c.019.04.056.055.114.055,0-.015-.014-.032-.042-.042a.335.335,0,0,0-.072-.013m.056,6.822h.058l-.058-.06Zm.016.284.042.058.03-.058-.03-.058Zm.042-8.064h.1l.028-.058h-.129Zm.1,6.093.028.043.043-.043-.043-.056Zm.015-5.193.013.014.03-.028-.03-.029Zm.013,6.921h.058v-.1h-.058Zm.015.1.043.045.045-.045-.045-.039Zm.043-8.021h.058a.183.183,0,0,0-.013-.056.1.1,0,0,0-.045-.043Zm.245-.372h-.1l.144.073h-.041Zm-.032.615.187-.316a.227.227,0,0,0-.15.088.729.729,0,0,0-.108.144Zm-.071,7.15h.058v-.054h-.058Zm.015-1.113.043.041.028-.041-.028-.043Zm.056-4.778.032.043.028-.043-.028-.043Zm.045.972.028.043.041-.043-.041-.057Zm.041,4.676.045.043.041-.043-.041-.043Zm0,.731.045.041.041-.041-.041-.06Zm.073.17.028.015V109.7Zm.159-8.423c-.04,0-.06.024-.06.073Zm-.03,2.232.03.028v-.059Zm.03,5.247h.056v-.056h-.056Zm.071-6.737v.047l.028-.032Zm.011,3.891c.032.048.049.077.056.088v-.088Zm.045-4.474-.028.028.015.03.024-.03Zm.011,5.289V106.7h-.039Zm-.011-1.372h.043l-.032-.03Zm.028,3.061.045.041.026-.041-.026-.046Zm.03-6.821a.1.1,0,0,0,.015.056.079.079,0,0,0,.041.043l.043-.043a.086.086,0,0,0-.043-.041.121.121,0,0,0-.056-.015m.056.884v-.055h-.041Zm-.028,4.393.013.041.032-.041-.017-.059Zm.045-3.374.026.041.041-.041-.041-.058Zm.056-1.576-.03.03h.058Zm.084,3.16a.38.38,0,0,1-.034-.076c-.005-.019-.035-.025-.08-.025a.114.114,0,0,0,.114.1m-.114.731.114-.043-.114-.112Zm.155-.686-.125.028.112.03-.013-.017Zm-.125,1.228.028.032v-.06Zm0,.2h.043c0-.01-.006-.017-.015-.028Zm.028,2.216c0,.049.018.073.056.073Zm.071.189.013.028.03-.045-.017-.043Zm.129-6.465v-.257l-.1.1Zm-.058-.743.058.058.028-.058-.028-.058Zm.028,6.692h.045l-.015-.028Zm.087-6.507.029.058.041-.058-.041-.056Zm0,.729.029.044.041-.044-.041-.057Zm0,1.459.029.043.041-.043-.041-.057Zm.012.744.017.028.029-.028-.029-.026Zm.073.316h.043v-.058Zm.043,3.086v-.04h-.043Zm-.028-6.048v.043l.028-.028Zm.115,3.919.156-.1h-.213Zm.014-.473.042.056.043-.056-.043-.058Zm.056-3.045.044.042.1-.042-.1-.044Zm.086.258-.042.028.042.028.043-.028Zm.013,4.474.03.043.042-.043-.042-.041Zm.045.286.04.046.032-.046-.032-.04Zm0,.272v.045c.009-.012.016-.015.022-.015a.034.034,0,0,0,.018-.013Zm.057-4.619.03.043.025-.043-.025-.04Zm.03,4.446h.041l-.041-.053Zm.1-.484.041-.041-.041-.118-.058.072Zm-.045-4.248.045.043.03-.043-.03-.057Zm.058-.2h.127l-.054-.046Zm.028,3.916h.045l-.045-.056Zm.015-2.116.03.045.043-.045-.043-.054Zm.131-.573c0,.1.041.145.127.145A.237.237,0,0,0,599.5,104Zm0,.758h.058v-.058H599.5Zm.058.929h.041v-.067h-.041Zm.013,1.459.028.032v-.058Zm.084-1.9.043.041.028-.041-.028-.043Zm0,.671.043.045.028-.045-.028-.043Zm.015-1.557.028.056v-.1Zm.028,2.329h.047l-.047-.056Zm.185-2.228.015.011.144-.2h-.06Zm.028,1.1-.028.011.015.032.045-.032Zm.088.527v.043l.03-.028Zm.058-2.089.024.03v-.057Zm.086.859.026.045.045-.045-.045-.054Zm0,1.447.026.043.045-.043-.045-.058Zm.14-1.318.043-.045h-.043Z" transform="translate(-558.632 -55.479)" fill="#fff"/>
  <path id="Path_5393" data-name="Path 5393" d="M605.677,100.624q0,3.837.039,7.665h2.661l.058.175a.611.611,0,0,1,.413-.162c.221,0,.355.078.408.231a1.493,1.493,0,0,1,.082.486c0,.217,0,.436-.008.656s-.015.443-.024.66l-.114.112c-.191,0-.376.005-.557.022s-.366.023-.557.023h-4.392a.443.443,0,0,1-.162-.071c-.082-.049-.124-.092-.124-.129v-9.668l.23-.183h1.845Zm-2.2,9.223-.032.015.032.028.025-.028Zm-.017-1.958.042.043.031-.043-.031-.057Zm.172-6.622a.6.6,0,0,1-.093.056.1.1,0,0,0-.049.088.543.543,0,0,0,.1-.045.089.089,0,0,0,.058-.082Zm-.13,6.278a.159.159,0,0,0,.059-.011.051.051,0,0,0,.028-.048l-.028-.01Zm.016-1.114.03.056.026-.056-.026-.056Zm.03-5.45.084-.114h-.084Zm.041,4,.015-.058-.056-.1v.03Zm-.041,1.831h.041l-.041-.045Zm0,.3c.1,0,.14-.05.14-.16Zm.013-4.476v.045l.028-.031Zm.028.3h.043V102.9h-.043Zm.043.545h.114v-.058h-.114Zm0,5.117h.056l.245-.057h-.3Zm.015-.341.041.056.045-.056-.045-.059Zm0,.527.041.058.045-.058-.045-.056Zm.013-2.573h.045a.03.03,0,0,0-.017-.028Zm0,.974.013.01.032-.026-.017-.032Zm.114-2.649.017-.041c0-.076-.039-.114-.118-.114Zm-.086-.613.086-.058-.086-.1Zm.017-1.789.041.045v-.1Zm.069-1.158-.028.043.028.028-.028-.028Zm.116.86a.164.164,0,0,0-.086.084c-.02.039-.041.078-.058.116Zm-.144,2.373.028.028.043-.028-.043-.045Zm0,2.217.028.056.043-.056-.043-.056Zm0,3.431h.028v-.06h-.028Zm.028-6.219h.06v-.073h-.06Zm.06,2.929a.171.171,0,0,0-.06.1l.116-.053Zm0-3.418h.213l-.243-.025Zm.112,1.746-.056-.159-.073.073Zm-.013,1.043c-.078,0-.116.035-.116.1h.116Zm-.043,2.032.056-.086h-.129Zm0-6.235v-.086l-.056.043Zm-.043,5.762.043.043.026-.043-.026-.056Zm0,2.745.043.045.026-.045-.026-.058Zm.013-.8.03.032v-.043Zm.172-.9a.126.126,0,0,0-.093.043l-.066.086.017.013Zm-.142.445h.043l-.043-.045Zm.071.729h-.071c.026,0,.043.007.043.028l-.043.015Zm-.045-3.876h.131l-.056-.088Zm.045-5.078-.028.013.028.017a.035.035,0,0,0,.03-.017Zm0,2.746-.028.017.028.026.03-.026Zm-.028.842h.058V104.3h-.058Zm.058-.312.1-.172h-.1Zm.013,2.146.028.043c.01-.01.015-.012.021-.008s0,.012-.006.023l.028.041.028-.041a.25.25,0,0,0-.071-.1Zm.028-.959c.01.028.038.043.086.043v-.043Zm.043.815a.2.2,0,0,0,.116-.17c-.105,0-.159.039-.159.127Zm.06.714c-.071,0-.1.039-.1.117.068,0,.1-.039.1-.117m-.088-3.974.028.026v-.056Zm0,2.619a.275.275,0,0,0,.131.211.549.549,0,0,0-.024-.142.1.1,0,0,0-.107-.069m.013.785a.054.054,0,0,0-.013.043Zm-.013,3.4.028.03v-.056Zm.013-5.946a.2.2,0,0,0,.058.069v-.069Zm0,6.363.1.028-.043-.129Zm.043-8.223-.028.015.028.026.015-.026Zm-.028.441a.378.378,0,0,1,.241-.14l-.114-.058Zm0,5.794h.043v-.043h-.043Zm.028,2.3-.028.015.028.026.015-.026Zm.5-.355c0-.013-.006-.017-.019-.017s-.022,0-.022.017h.041Zm-.411-6.466.125-.114-.1-.144-.1.058Zm-.073.715.1-.1-.039-.1Zm.028,2.387-.028.018.028.025.032-.025Zm.032-5.246h.039v-.045h-.039Zm0,6.23c.017-.007.039-.018.069-.033a.066.066,0,0,0,.043-.066h-.112Zm.013-4.945v.045l.026-.031Zm2.688,7.407.058-.082.041.069v.013h.172a.24.24,0,0,0-.1-.206.244.244,0,0,1-.108-.209l.213.032.116-.075h1l.054-.1c0-.121-.041-.191-.129-.2s-.17-.013-.256-.013v-.086h-.2l.071.041-.014.045h-2.175a1.032,1.032,0,0,0,.286-.331.664.664,0,0,0-.306.193.415.415,0,0,1-.32.138l-.088-.058a1.048,1.048,0,0,1-.152.043.431.431,0,0,1-.142.006.139.139,0,0,1-.106-.066.269.269,0,0,1-.043-.168l.058-.043-.058-.1v-1.442l.1-.059-.1-.03v-3.929l.114-.129h-.114v-.545l.2-.1-.069-.025-.129.011v-1.087l.1-.2-.13.043-.142-.058a.228.228,0,0,0-.192.108.647.647,0,0,1-.167.161h.2V103l-.069.1.069.087v.344l-.069.114h.069v.327l-.054-.058-.047.058.1.143V105.8l-.069.086.069.114v1.931l-.054.086.054.1-.054.2.069.1v1.171h1.118l-.017.1.045.112.1-.183h.529v.045c.037-.011.08-.026.127-.038a.456.456,0,0,1,.112-.022l.333.015a.321.321,0,0,1-.094.122.145.145,0,0,0-.063.121l.114-.06.142.06-.1.1v.026Zm-2.632-2.759-.03.011.03.033.03-.033Zm.03,1.315.039-.057-.039-.043-.06.043Zm-.043.874.043.041.028-.041-.028-.043Zm.043-7.595h.039l-.039-.041Zm0,4.493h.039v-.045h-.039Zm.056-2.648.03.045.041-.045-.041-.041Zm0,.915.03.058.041-.058-.041-.056Zm0,5.461.03.045.041-.045-.041-.056Zm.344-.241.028.043.028-.043-.028-.06Zm.086-7.678.085.085.029-.045-.029-.04-.012.014-.03-.073Zm0,4.446.043.042.03-.042-.03-.058Zm.156-2.9c0-.058-.038-.084-.113-.084v.015Zm-.113,5.464h.041v-.058H604.8Zm.013-4.248.029.043.029-.043-.029-.058Zm.029,1.058-.029.043.029.043-.029-.043Zm-.029,1.1.029.041.029-.041-.029-.041Zm.029-6.062a.286.286,0,0,0,.081-.015.169.169,0,0,0,.075-.043h-.156Zm0,2.931a.314.314,0,0,0,.2-.058h-.2Zm.1.857v-.086h-.069Zm0-3.517.1-.043c-.019-.017-.034-.034-.045-.043a.081.081,0,0,0-.058-.015Zm.031.757-.031.017.016.026.042-.026ZM605,104.5v-.1l-.058.054Zm-.058.856H605v-.084h-.059Zm.073.89.129-.2-.2.114Zm-.073,1.07a.379.379,0,0,0,.187-.048.177.177,0,0,0,.086-.167.254.254,0,0,0-.135.037.281.281,0,0,1-.138.036Zm.016-4.362L605,103l.03-.045L605,102.9Zm0,7.293.042.045.03-.045-.03-.058Zm.042-9.569a.048.048,0,0,0,.03.047.123.123,0,0,0,.057.013l-.072-.073Zm.015,2.132.03.045.028-.045-.028-.056Zm.015,7.237.057.056v-.138Zm.026-8.537.031.043.042-.043-.042-.056Zm.031,4.048-.031.056.031.043-.031-.043Zm-.031,1.457.031.045.042-.045-.042-.059Zm.06-4.86-.029.029h.057Zm.042.414.029.042.028-.042-.028-.059Zm.029,6.164c-.023,0-.029.015-.029.041l.029.028Zm.028-2.878a.153.153,0,0,0,.136-.073,1.168,1.168,0,0,0,.079-.151l-.086-.073-.112.056.056.086Zm.028-.742-.011.017.026.028.03-.028Zm.015-.639.03.026v-.045Zm.157,3.871a.353.353,0,0,1-.064.056.177.177,0,0,0-.05.074l.114-.057Zm-.071-6.962h.045l-.015-.028Zm0,2.96.015.011.03-.026-.015-.028Zm0,5.622h.03v-.06Zm.03-.873h.1v-.058Zm.015-1.59.026.043.045-.043-.045-.056Zm.026-4.117h.058v-.043h-.058Zm.1,5.462a.165.165,0,0,0,.058.144v-.144Zm.03-3.861.028.045.028-.045-.028-.058Zm.286,3.66.041.042V108.6Zm.141,1.629h.045l-.018-.013ZM606,108.9l.1-.056-.1-.114Zm.018.959.04.043.029-.043-.029-.06Zm0,.486.04.043.029-.043-.029-.056Zm.1-.2.029.041.041-.041-.041-.045Zm.04-1.585a.422.422,0,0,1,.087.1l.042-.059a.651.651,0,0,0-.082-.1Zm.087,1.443v-.041h-.04Zm-.013-1.46a.094.094,0,0,0-.012.057Zm.087.243.025.058.048-.058-.048-.056Zm.025,1.073a.259.259,0,0,0,.059-.1h-.059Zm.3-.77.374.041a.2.2,0,0,0-.159-.114,1,1,0,0,0-.215-.028Zm.23,1.3.058-.116-.1.06Zm.287-1.544.2-.045v-.114a1.563,1.563,0,0,1-.148-.063,1.21,1.21,0,0,1-.153-.079l-.1.187Zm.171,1.118a.532.532,0,0,0,.071.082l.042-.041-.042-.041-.014.011-.029-.071Zm.17.138v-.155l-.043.1Zm.016-1.727.027.042.031-.042-.031-.058Zm0,1.772.027.041.031-.041-.031-.045Zm.014-.484a.193.193,0,0,0,.085.162.275.275,0,0,0,.172.064V109.8Zm.057-.817h.114l-.044-.045Zm0,.245h.07l-.07-.058Zm.187,1.086a.3.3,0,0,0,.2-.075,1.675,1.675,0,0,0,.157-.138l-.084-.06Zm.355.114h.056v-.03h-.056Zm.015-.529.041.039.032-.039-.032-.043Zm.17.284h.073a.046.046,0,0,0-.02-.041c-.015-.011-.032-.026-.053-.041Zm.088-.142h.116v-.142Zm.015-.959a.129.129,0,0,0,.094.053c.039,0,.076,0,.106,0v-.058Zm.071.443.03.045.026-.045-.026-.058Zm.03.873a.146.146,0,0,0,.041.052.418.418,0,0,0,.058.034v-.086Zm.056-.314-.015.017.028.026.03-.026Zm0-.471.043.041.026-.041-.026-.043Zm.043-.2h.041l-.041-.058Zm.013-.488.028.058.043-.058-.043-.056Zm.086.774c-.007.017-.02.041-.035.069a.208.208,0,0,0-.023.071v.017a.087.087,0,0,0,.043-.056.224.224,0,0,0,.015-.075Zm0,.3h.043l-.043-.06Zm.043-.871a.171.171,0,0,0,.159.112c0-.075-.052-.112-.159-.112m.142,1.37c.06-.038.092-.069.1-.1h-.1Zm.017-1.458.043.043.026-.043-.026-.056Zm.128.374.042-.058h-.127Zm-.07.557.024.028v-.06Z" transform="translate(-558.632 -55.479)" fill="#fff"/>
  <path id="Path_5394" data-name="Path 5394" d="M612.059,105.186v-4.448a.212.212,0,0,1,.062-.177.3.3,0,0,1,.157-.064,1.079,1.079,0,0,1,.192-.017.447.447,0,0,0,.187-.039h1.529l.3.256v1.972l-.067.085-.032-.013a.753.753,0,0,0,.058.206.47.47,0,0,1,.041.207.329.329,0,0,1-.021.094.462.462,0,0,1-.035.093l.056.1a4.086,4.086,0,0,0,.026.466c.011.148.028.3.049.465.048-.009.123-.076.237-.2s.232-.283.375-.477l.46-.632c.161-.221.322-.441.479-.65s.3-.393.442-.552a1.424,1.424,0,0,1,.365-.319l-.028-.086c.038-.058.1-.142.177-.25s.171-.223.264-.337a3.34,3.34,0,0,1,.286-.3.4.4,0,0,1,.245-.125h1.786c.268,0,.4.122.4.37a.314.314,0,0,1-.022.112c-.015.051-.028.088-.036.116-.008.007-.061.071-.157.185s-.215.254-.351.422-.286.354-.448.552-.318.388-.458.564-.266.333-.367.465a.969.969,0,0,0-.162.259c-.058.076-.159.2-.3.364s-.288.344-.437.536-.281.37-.393.533a.819.819,0,0,0-.17.353,4.235,4.235,0,0,0,.256.422,3.261,3.261,0,0,0,.327.393l-.054.1.1.112.1-.054a1.949,1.949,0,0,1,.372.392c.1.148.2.3.3.45s.194.307.291.464a2.289,2.289,0,0,0,.354.423l-.043.228.028.017.041-.045c.03.028.073.063.131.107s.112.091.17.136a.836.836,0,0,1,.144.156.287.287,0,0,1,.058.146.635.635,0,0,1-.021.094c-.015.039-.03.071-.037.089l.143-.056.1.056c.038.058.105.142.2.258s.189.23.281.352.17.235.243.349a.6.6,0,0,1,.106.258c0,.248-.134.37-.4.37a1.616,1.616,0,0,1-.228-.015c-.074-.008-.153-.019-.226-.028v-.138a.223.223,0,0,1-.216.181h-1.359q-.458-.513-.875-1.056c-.274-.362-.549-.731-.82-1.1s-.544-.733-.815-1.091-.561-.715-.865-1.059h-.045v.728l-.114.1c.011.029.033.093.067.191a1.4,1.4,0,0,1,.047.181v2.819l-.239.284H612.4a.392.392,0,0,1-.23-.077.232.232,0,0,1-.112-.207v-4.648a.387.387,0,0,1,.043-.172,1.352,1.352,0,0,1,.069-.157l-.015-.043Zm.067,3.717.045.058v-.114Zm.088-6.274h.043l-.086-.1-.015.029Zm-.043-1.745.03.34v-.3c-.011.021-.023.023-.03.011a.049.049,0,0,1,0-.05m.03,3.771h.056V104.6Zm.155,3.622v-.1H612.2Zm-.142-4.877.043.04.03-.04-.03-.059Zm.015-1.389.028.03V102Zm.028,5.921c.007.038.043.058.1.058v-.058Zm.144-6.364a.19.19,0,0,0-.131.187h.131Zm-.131,2.26.03.042.04-.042-.04-.058Zm.03-1.116h.056l-.056-.043Zm.056,5.95.357-.043H612.3Zm-.056,1.2h.056v-.043H612.3Zm.215.086-.215.043.241-.026Zm-.159-5.692h.045v-.041h-.045Zm.1-3.372-.056.056.056.041-.043-.041Zm-.03,1.958-.026.026h.056Zm-.026.6h.056v-.1H612.4Zm.14,4.2-.084-.2-.056.056Zm.187,1.017a2.063,2.063,0,0,0-.213.165.274.274,0,0,0-.114.235v.041l.342-.415Zm-.271-3.289-.043.058.043.041-.043-.041Zm-.043.772.043.043.028-.043-.028-.058Zm0,1.643.043.058.028-.058-.028-.056Zm.043-6.521h.043l-.043-.1Zm.142,3.42a.163.163,0,0,0-.142.112c.091,0,.142-.037.142-.112m-.1-3.177h.2a.16.16,0,0,0-.079-.041.249.249,0,0,0-.078-.015H612.5Zm0,2.176h.041v-.043H612.5Zm.015-.574.026.042.032-.042-.032-.057Zm0,1.874.026.045.032-.045-.032-.058Zm0,1.288.026.026v-.054Zm.142-4.089c-.084,0-.13.031-.13.1l.014.053c.076,0,.116-.049.116-.153m-.116,5.172.043-.041h-.043Zm.015-3.63.028.043.056-.043-.056-.041Zm0,3.247.028.041.015-.041-.015-.058Zm.028-2.917c0,.085.053.129.159.129,0-.056-.015-.093-.045-.109a.253.253,0,0,0-.114-.02m.144,3.918.015-.056-.086-.147-.073.016Zm-.129-6.321.058.043.028-.043-.028-.058Zm0,.929.058.046.028-.046-.028-.056Zm0,6.993.058.056.028-.056-.028-.058Zm.086-5.134-.028.013.028.03.043-.011Zm-.013-3.218a.558.558,0,0,1,.036.049.152.152,0,0,0,.02.05l.043-.039-.043-.06-.015.015-.015-.071Zm.013,1.632a.156.156,0,0,0,.058.12,1.069,1.069,0,0,0,.1.079.246.246,0,0,0-.041-.136.131.131,0,0,0-.114-.063m.028-1.617a.064.064,0,0,0-.015.028.029.029,0,0,0,.015-.028m-.015,4.949a.271.271,0,0,0,.023.078.071.071,0,0,0,.063.051.249.249,0,0,0-.013-.086c-.007-.03-.035-.043-.073-.043m.015-4.22v.056l.015-.024ZM612.84,105v-.026l-.056-.129-.071.056Zm-.112-4.175.03-.013-.03-.032Zm0,8.666h.056v-.056h-.056Zm.03.544-.03.013.03.028.026-.028Zm.026-9.337h.056v-.073h-.056Zm.1,1.843v-.056h-.1Zm0,1.06v-.129l-.1.071Zm-.1,3.9h.056v-.056Zm.015,2.419.041.045.03-.045-.03-.058Zm.015-3.3.013.012.032-.03-.019-.013Zm.013-.889.2-.116-.045-.056Zm.1,3.231.1-.213-.189.054-.013.03Zm-.069-7.12-.019.013h.045ZM612.84,106h.045l-.045-.043Zm.26,3.489.159.086a.163.163,0,0,0,.112-.093.6.6,0,0,0,.064-.17.752.752,0,0,0,.022-.187v-.152a2.875,2.875,0,0,0-.022-.377,3.263,3.263,0,0,1-.019-.377.088.088,0,0,1,.077-.094.1.1,0,0,0,.08-.093h-.144l-.013-1.632c0-.142,0-.29.013-.434s.013-.293.013-.437l.172-.075a.185.185,0,0,0-.1-.14.366.366,0,0,1-.1-.3.852.852,0,0,1,.1-.357,1.363,1.363,0,0,1-.107-.513c-.005-.192,0-.389.013-.6s.025-.414.03-.617a2.268,2.268,0,0,0-.05-.54c.019-.077.036-.15.056-.217a.769.769,0,0,0,.03-.215.675.675,0,0,0-.146-.426,2.482,2.482,0,0,0-.312-.342l-.015.054.058.116v2.9l-.187.143.043.075.1-.075.043.015c0,.182,0,.355-.005.529s-.019.348-.038.529l.043.058v1.188l-.088.112.1.086c-.017.037-.037.077-.056.114a.285.285,0,0,0-.028.129h.1Zm-.185-3.216-.03.026.013.03.03-.03Zm-.017-4.519.03.043.043-.043-.043-.058Zm.017.9.013.015.03-.028-.03-.012Zm.013-1.83h.056l-.056-.045Zm0,7.453.056-.057h-.056Zm0,1.486H613a.085.085,0,0,0-.073-.043ZM613,101.6l.041-.013-.013-.015Zm0,.458.028.045.028-.045-.028-.054Zm0,4.076.013.015.028-.032-.013-.026Zm.1-5.364-.028.013.028.032.015-.032Zm.1,9.225.028.028v-.054Zm.114-8.767h.056v-.056h-.056Zm.157,2.031.043.043.028-.043-.028-.056Zm.043,4.29-.043.056.043.044-.043-.044Zm-.043,1.745.043.041.028-.041-.028-.058Zm.084-6.952.047-.053h-.088Zm-.041,7.825h.071l-.03-.06Zm.028-1.831.114-.055-.054-.057Zm.013-4.162c.011.039.047.059.1.059v-.059Zm.03.943-.03.017.017.028.03-.028Zm.116,4.048c.009-.046.015-.089.019-.127a.432.432,0,0,1,.039-.131l-.2.084v.032Zm-.129-5.69.03.015.026-.033-.026-.013Zm.215,2.042a.863.863,0,0,0-.122.017c-.054.009-.08.035-.08.084a.88.88,0,0,0,.2-.1m.028-3.072a.792.792,0,0,1-.122.048.149.149,0,0,0-.091.08l.054.014Zm-.187,2-.026.032h.054Zm0,1.359-.026.013.026.015a.036.036,0,0,0,.028-.015Zm.131,3.762c-.023.017-.045.041-.075.069a.146.146,0,0,0-.043.1l.079-.037a.066.066,0,0,0,.052-.064Zm-.1-4.334c.011.036.045.056.1.056v-.056Zm.013-1.16.045.044.026-.044-.026-.055Zm0,5.965v.041a.049.049,0,0,1,.024-.011c.006,0,.012,0,.021-.017Zm.2-3.616a.145.145,0,0,0-.131.076.342.342,0,0,0-.039.15.131.131,0,0,0,.127-.077.31.31,0,0,0,.043-.149m-.157-4.278.086-.041-.071-.075-.015.017Zm0,2.7a.169.169,0,0,0,.058-.1h-.058Zm.015-4.319v.026a.065.065,0,0,0,.03-.011Zm0,.985.03.058.028-.058-.028-.056Zm.1,3.046.174-.082-.187-.075-.056.1Zm-.069,2.844.08-.1-.08-.1Zm.013-5.587.028.041.028-.041-.028-.058Zm.067-1.116a.042.042,0,0,0-.039.028.116.116,0,0,0-.013.054h.052Zm0,3.073a.128.128,0,0,1-.011-.043.066.066,0,0,0-.028-.041l-.013.013Zm-.039-.672h.039v-.086H613.8Zm0,2.989a.1.1,0,0,0,.1.071v-.071Zm0,1.987c.035-.008.058-.041.058-.1H613.8Zm.015-2.944.024.056.047-.056-.047-.058Zm0,4.835.024.054.047-.054-.047-.06Zm.043-.634.043.047.026-.047-.026-.041Zm.286-1.485.041-.157-.183-.1-.056.06Zm-.045-1.959a.1.1,0,0,0-.064.056.212.212,0,0,1-.05.071.106.106,0,0,0,.065-.056.26.26,0,0,1,.049-.071m-.1-2.918.082-.1-.082-.239Zm0,1.1h.043v-.054H614Zm0,2.261h.082v-.03H614Zm.082.329a.086.086,0,0,0-.082.059h.082Zm-.011-1.916.071.056v-.144Zm.026-3.347-.015.015.015.03.045-.03Zm.271,1.517a.2.2,0,0,0-.176.1c-.043.066-.08.129-.11.187ZM614.1,105.5l-.015.011.03.03.03-.013Zm.245-2.062a.275.275,0,0,0-.15.046.132.132,0,0,0-.08.124.3.3,0,0,0,.151-.04.136.136,0,0,0,.079-.13m-.23,5.863.03.028v-.041Zm.03-1.858h.1v-.058h-.1Zm.015-1.532.026.045.045-.045-.045-.058Zm.086-1.7.071-.044h-.131Zm-.045,1-.015.013.03.028.03-.028Zm0,3.545.045.041.026-.041-.026-.059Zm0,.716.045.041.026-.041-.026-.043Zm.045-3.764.084-.056h-.013Zm.013-1.3.028.06v-.119Zm0,.241.028.045.03-.045-.03-.056Zm.058,1.862-.03.015.015.026.028-.026Zm-.03,1.141c.046-.018.076-.038.084-.073l-.041-.04Zm.03.588-.03.031.015.025.028-.025Zm-.03,1.474h.043v-.045Zm.015-2.417.028.054.03-.054-.03-.056Zm.015-1.973a.613.613,0,0,0,.054.084v-.084Zm0,2.66.013.043v-.1Zm.013-1.2.041-.069-.041-.087Zm.155-1.588.088-.069-.088-.058Zm.017-.355.028.041.03-.041-.03-.045Zm.286.8a.211.211,0,0,0-.165.08.941.941,0,0,0-.106.152c.044-.023.1-.047.172-.081a.166.166,0,0,0,.1-.151m.142.344a.164.164,0,0,0-.122.051.168.168,0,0,0-.048.121.173.173,0,0,0,.121-.05.161.161,0,0,0,.049-.122m-.1-.656a.042.042,0,0,0-.041.026.138.138,0,0,0-.015.058.046.046,0,0,0,.044-.028.149.149,0,0,0,.012-.056m-.027-.4h.057V104.8Zm.085.288h.043l-.028-.03Zm.1-.447v.045a.038.038,0,0,0,.029-.015Zm.014,1.447.015.03a.132.132,0,0,0,.1-.088.837.837,0,0,0,.044-.127Zm.015-.744.044-.058h-.044Zm.044.383c.047,0,.081-.028.1-.091s.03-.111.043-.15h-.142Zm.027-1.512h.028a.05.05,0,0,0-.012-.03Zm.988,2.444a.431.431,0,0,1,.206.129,2.146,2.146,0,0,1,.168.2c.045.068.091.131.132.187s.081.084.106.084c.3.373.592.743.889,1.109s.6.729.916,1.08l.144-.157a.4.4,0,0,0-.081-.25,1.209,1.209,0,0,0-.187-.2c-.069-.062-.14-.124-.2-.187a.656.656,0,0,1-.159-.219.271.271,0,0,0-.136-.225.534.534,0,0,1-.193-.206l.1-.157-.157.058c-.235-.261-.461-.527-.676-.8s-.425-.558-.622-.844a.973.973,0,0,1,.043-.3l-.147.159c-.065-.058-.161-.15-.286-.271a.631.631,0,0,1-.2-.333l.041-.112a.166.166,0,0,1-.119.007.287.287,0,0,1-.114-.065.32.32,0,0,1-.086-.11.233.233,0,0,1-.036-.118l.086-.058.083.043c-.027-.039-.017-.1.031-.2a1.979,1.979,0,0,1,.187-.3c.077-.1.153-.2.232-.291a1.766,1.766,0,0,1,.179-.181l.047.057.169-.057-.127-.114c.016-.029.05-.077.084-.142a1.257,1.257,0,0,1,.137-.195c.051-.06.1-.118.149-.17a.366.366,0,0,1,.117-.093l.1.043V103.4a1.422,1.422,0,0,1,.162-.259c.092-.124.19-.252.3-.379s.208-.243.307-.344a.668.668,0,0,1,.207-.164v-.114l.432-.572a.307.307,0,0,0-.012-.146c-.014-.045-.054-.067-.119-.067s-.127.047-.215.142a4.456,4.456,0,0,0-.288.357l-.334.471c-.12.173-.234.329-.342.471a3.76,3.76,0,0,1-.31.358.393.393,0,0,1-.243.144l-.069.043.1.071c-.1.146-.211.294-.321.458a2.949,2.949,0,0,1-.367.443.265.265,0,0,1-.149.086.172.172,0,0,0-.12.086h.129l-.529.8a.551.551,0,0,0,.135.31c.092.118.192.241.308.372s.226.255.344.378a1.588,1.588,0,0,1,.241.327Zm-.916-1.988h.043v-.056h-.043Zm.013,1.86h.044a.047.047,0,0,0-.014-.028Zm.044-2.689.029.044.04-.044-.04-.041Zm.044,2.86.041.027.045-.027-.045-.043Zm.041-.444h.058v-.056H615.3Zm.045-.428a.137.137,0,0,0,.041.1v-.1Zm.24.23a.565.565,0,0,1,.018.213.1.1,0,0,1-.045.056.09.09,0,0,1-.056.017q-.03,0-.03.084l.187-.049c.086-.026.131-.06.131-.108Zm-.083-1.974h.043l-.043-.044Zm.043,2.975-.043.012.026.029.057-.029Zm.139-3.5a.089.089,0,0,0-.053.084h.114Zm.145,1.3a.126.126,0,0,0-.1.045h.1Zm-.013,2.074c0,.105.043.157.129.157a.245.245,0,0,0-.028-.109.11.11,0,0,0-.1-.048m.086-3.49-.013.04.028-.025Zm-.013.359v.041l.138-.243h-.054Zm.056,3.387.028.041v-.11Zm.129-2.472.056-.1h-.114Zm-.058.486a.437.437,0,0,0,.058.084v-.084Zm.011-2.318.1-.071h-.1Zm.187,4.864a.452.452,0,0,1-.093.05.527.527,0,0,0-.094.049h.047a.2.2,0,0,0,.093-.03.076.076,0,0,0,.047-.069m-.14-2.021a.087.087,0,0,0,.1-.1h-.1Zm.016,1.346.04.046v-.088Zm.171-2.66h.056V104.5h-.056Zm.156.458a.1.1,0,0,0-.1.073.746.746,0,0,1-.057.114c.1-.039.156-.1.156-.187m-.156.658h.056v-.041h-.056Zm.014,2.518.043.045.026-.045-.026-.043Zm.086-.243.056.043v-.129Zm.1-5.376-.042.013.031.029.055-.029Zm-.011,2.673a.125.125,0,0,0,.055.1v-.1Zm.011-.83.056-.086h-.056Zm.014-1.988.042-.012-.012-.014Zm.086.644.127-.114-.083-.028-.115.07Zm-.071,4.717.027.016a.176.176,0,0,0,.044-.056Zm.015-3.659a.562.562,0,0,0,.049.049.067.067,0,0,0,.051.024v-.073Zm.027,1.716.029.026v-.041Zm.1.546-.028.011.028.032.03-.032Zm-.013-2.49.043.044v-.1Zm.055-1.1.013.025.031-.014-.031-.042Zm0,2.089h.044l-.031-.03Zm.145,1.239c-.069,0-.112.045-.132.133.087-.021.132-.062.132-.133m-.132,2.189c0,.02.016.036.044.05a.125.125,0,0,0,.073.024l-.117-.1Zm.1-5.648.013.015a.632.632,0,0,0,.144-.1h-.058Zm.041-.3.017.03.058-.073-.017-.027Zm0,4.446a.1.1,0,0,0,.116.115.1.1,0,0,0-.116-.115m.017-2.831.041-.041h-.041Zm0,5.017h.1l-.074-.041-.025.015Zm.011-1.2.03.058.041-.058-.041-.056Zm.03-1.542a.123.123,0,0,0,.1.054v-.054Zm.058-4.147h.043v-.058h-.043Zm.011,2.431H617a.036.036,0,0,0-.013-.03Zm0,3.96H617a.029.029,0,0,0-.013-.026Zm0,.212.015.046.03-.046-.013-.04Zm.032-5.361h.1V103.2Zm.1.772c-.06,0-.089.021-.1.057h.1Zm-.043-.143.043.044.041-.044-.041-.041Zm.013,5.2h.045l-.015-.03Zm.03-5.531.1.043v-.116Zm.041,3.158-.041.029.041.027.06-.027Zm-.041,1.617h.127l-.071-.042Zm0,.2h.187l-.187-.056Zm0,.342.1-.058-.1-.056Zm.056-6.737h.045v-.04h-.045Zm0,4.321.071-.058h-.071Zm.015-5.048v.043l.03-.03Zm0,5.9.03.045v-.088Zm.116-6.045v-.088l-.06.056Zm0,.5V101.8h-.06Zm-.06,5.305h.06v-.043Zm0,2.275.06-.056h-.06Zm.015-1.933.045.044.041-.044-.041-.056Zm.142,1.643.017-.024a.061.061,0,0,0-.043-.058c-.03-.013-.052-.02-.071-.028Zm-.082-5.99a.369.369,0,0,1,.071.1l-.032-.157Zm.056.659v.043l.026-.028Zm0,5.449.026.028.032-.028-.032-.03Zm.129-2.346v-.143l-.1.057Zm0,1.916c-.019,0-.054.023-.1.071h.1Zm-.1.843a.31.31,0,0,0,.144-.112h-.028Zm.23-6.934a.237.237,0,0,1-.106.055.2.2,0,0,0-.092.06l.071.057Zm-.185-.788a.116.116,0,0,0,.1-.071h-.1Zm.058,5.206.041-.043h-.041Zm.084.73a.117.117,0,0,0,.056-.117l-.1.074Zm-.013-4.477a.378.378,0,0,0,.094-.012.147.147,0,0,0,.076-.059l-.069-.056Zm.2,6.607.114-.054-.157-.075-.144.075Zm-.144-9.152.032.017.039-.06Zm.045,6.077.011.071.03-.071-.015-.087Zm.226-5.993a.14.14,0,0,0-.157.159.462.462,0,0,0,.116-.058.108.108,0,0,0,.041-.1m-.127,1.945.056-.134a.185.185,0,0,1,.1-.093l-.1-.04-.086.125Zm-.013-1.3.039-.013-.026-.015Zm.013,6.136h.073l-.073-.043Zm.086,1.442h.041l-.013-.03Zm.071.344.4.045-.3-.086Zm.03-6.635.026.03v-.045Zm.041,4.593v.04L618,107.5Zm.028.5h.1l-.058-.086Zm.032,2.145.17-.073-.073-.028Zm.024-.574-.011.017.026.028.017-.028Zm.088-8.662h.058l-.058-.06Zm0,7.19.026.017a.2.2,0,0,0,.094-.139.76.76,0,0,0,.026-.164l-.017.187Zm.071-.441h.043l-.015-.048Zm0,.93.028.056.03-.056-.03-.06Zm.028,1.256.047-.056-.047-.088Zm.015-7.363v.042a.05.05,0,0,0,.032-.014Zm0,5.889.032.031v-.057Zm.043-7.265.045.03.024-.03-.024-.041Zm0,1.1.045.039.024-.039-.024-.045Zm.056,5.661.032.043.039-.043-.039-.058Zm.032.385a.319.319,0,0,0,.185-.157l-.185.071Zm.011-6.418.045.041.028-.041-.028-.058Zm0,.628.045.043.028-.043-.028-.056Zm.015,7.55.03.028v-.054Zm.129-7.851.1-.116a.253.253,0,0,0-.086.017.113.113,0,0,0-.071.058Zm.03,7.679.159-.144-.245.088Zm-.043-7.534h.013l-.013-.061Zm.028,6.362-.028.015.013.026.03-.026Zm.215.155-.243.045c.018,0,.061,0,.129-.007s.1-.015.114-.038m-.172-7.892h.043l-.013-.026Zm0,.815a.258.258,0,0,0,.02.116c.015.028.051.041.111.041-.014-.028-.028-.062-.043-.1a.1.1,0,0,0-.088-.058m.088,7.077.043.045c.007-.009.014-.011.02-.007s0,.011-.007.022l.043.041v-.1l-.056-.054Zm.043-7.206h.082l-.026-.028Zm0,8.666c.007.03.035.047.082.047v-.047Zm.3-.671a.1.1,0,0,0-.114-.114l-.045.013Zm-.144-8.61.03.058.041-.058-.041-.058Zm.058,1.1-.028.015.028.026.028-.026Zm.071,7.107.041-.071-.112-.086Zm-.015-7.451c0,.058.039.1.114.114a.1.1,0,0,0-.114-.114m.269-.916.074-.086-.027-.114-.116.073Zm-.04.187.029.028v-.058Zm.029,8.552h.058l-.058-.045Zm.011-.174.047.045v-.1Zm.231-8.408a.187.187,0,0,0,.1-.03.2.2,0,0,0,.086-.067l-.028-.017Zm0,.243h.043v-.056Zm.043,8.279-.043.015.043.028.044-.028Zm.058.275.041.041.032-.041-.032-.058Zm.127.57.071-.056a.077.077,0,0,0-.063-.03.112.112,0,0,1-.062-.015Zm.146-.329-.1-.157-.086.086Zm.112-.316a.159.159,0,0,0-.112.06h.112Z" transform="translate(-558.632 -55.479)" fill="#fff"/>
  <path id="Path_5395" data-name="Path 5395" d="M574.147,105.444a1.44,1.44,0,0,1,.106-.54,1.584,1.584,0,0,1,.294-.456,1.439,1.439,0,0,1,.431-.318,1.169,1.169,0,0,1,.54-.125,1.379,1.379,0,0,1,.583.125,1.472,1.472,0,0,1,.479.327,1.711,1.711,0,0,1,.325.49,1.485,1.485,0,0,1,.118.588,1.171,1.171,0,0,1-.127.537,1.28,1.28,0,0,1-.329.424,1.49,1.49,0,0,1-.475.284,1.563,1.563,0,0,1-.534.1,1.415,1.415,0,0,1-.561-.112,1.32,1.32,0,0,1-.441-.308,1.485,1.485,0,0,1-.3-.456,1.515,1.515,0,0,1-.11-.561m.11.21.034.031.018-.031-.018-.04Zm.052-.141a.114.114,0,0,0,.04.07v-.07Zm.131.634-.019.022.019.017.022-.017Zm.034-.886h.026l-.008-.019Zm.018.124a.117.117,0,0,0,.072.041v-.041Zm.021-.453c0,.041.024.073.078.1l.01-.032a.055.055,0,0,0-.028-.052.14.14,0,0,0-.06-.015m.189.381a.106.106,0,0,0-.045-.086.479.479,0,0,0-.093-.056l-.012.019Zm-.12.573h.082a.061.061,0,0,0-.043-.061Zm.009-1.156h.03v-.03h-.03Zm.021.361.009.018.019-.018-.019-.018Zm.052.383h.038v-.03h-.038Zm.008-1.116.03.032.022-.032-.022-.039Zm.011.422.019.019v-.039Zm.041,1.376-.032.03.019.021.021-.038Zm.008-.985h.031v-.027Zm.031.241v-.071h-.031Zm-.02-.439.02.026.028-.026-.028-.041Zm.069.269.022.032.019-.032-.019-.041Zm.09.372a.062.062,0,0,0-.058.04.591.591,0,0,0-.032.072c.067,0,.1-.028.1-.082Zm-.058-1.325.018.03.03-.03-.03-.041Zm.071.168.018.034.03-.034-.03-.039Zm.028.9.03.032.02-.032-.02-.04Zm.03.091h.061l-.031-.032Zm0,.994H575l-.03-.033Zm.009-1.478v.032l.021-.019Zm.133-.613.03-.028-.03-.03-.041.03Zm-.021.4h.032l-.011-.02Zm.058.292.021.031.018-.031-.018-.043Zm0,.271.021.028.018-.028-.018-.039Zm0,.413.021.027.018-.027-.018-.041Zm.021-.213a.267.267,0,0,0,.123.226.426.426,0,0,0,.249.086.358.358,0,0,0,.246-.092.273.273,0,0,0,.1-.229.361.361,0,0,0-.1-.262.332.332,0,0,0-.254-.11.316.316,0,0,0-.256.122.377.377,0,0,0-.108.259m.043-1.3.028.032.02-.032-.02-.039Zm0,.413.028.032.02-.032-.02-.039Zm.028.572.073-.03h-.073Zm.1-.441h.045l-.045-.03Zm.022.2.011.013.019-.021-.007-.02Zm.023,1.68h.057l-.029-.032Zm.065-2.16-.008.011.023.018.007-.018Zm.164.181-.1-.1v.022Zm-.02.381.02.031.019-.031-.019-.043Zm.05-.624c0,.039.015.065.04.073v-.073Zm.01.482.03.032.029-.032-.029-.039Zm.071.073h.1l-.071-.041h-.028Zm.13,1.706-.031-.071-.04.032Zm-.031-1.508h.06l-.04-.039-.02.012Zm.031-.824h.029l-.029-.028Zm.17.144-.02-.034H576Zm-.02,1.254v.031l.02-.023Zm.161-.845a.126.126,0,0,0-.036-.1c-.021-.023-.048-.047-.075-.075l-.03.03Zm-.141.29c0,.037.025.052.07.052l-.07-.071Zm.042.979.028.027.031-.027-.031-.043Zm.009-1.56h.03a.017.017,0,0,0-.011-.019Zm.03-.2a.162.162,0,0,0,.034.1.357.357,0,0,0,.087.077l.01-.032a.191.191,0,0,0-.036-.1.113.113,0,0,0-.095-.048m.06,2.029a.241.241,0,0,0-.04.058h.04Zm.043-2.119.018.028.03.011-.03-.069Zm.009,1.426.009.008.02-.02-.02-.007Zm.049-.845h.071v-.039Zm.079,1.589h.031a.027.027,0,0,0-.011-.021Zm.063-.8h.028v-.042h-.028Zm.059-1.024a.094.094,0,0,0-.041.069h.041Z" transform="translate(-558.632 -55.479)" fill="#fff"/>
  <path id="Path_5396" data-name="Path 5396" d="M622.956,105.444a1.459,1.459,0,0,1,.106-.54,1.518,1.518,0,0,1,.292-.456,1.415,1.415,0,0,1,.431-.318,1.175,1.175,0,0,1,.54-.125,1.385,1.385,0,0,1,.585.125,1.489,1.489,0,0,1,.478.327,1.644,1.644,0,0,1,.323.49,1.451,1.451,0,0,1,.118.588,1.168,1.168,0,0,1-.125.537,1.326,1.326,0,0,1-.331.424,1.47,1.47,0,0,1-.473.284,1.572,1.572,0,0,1-.538.1,1.427,1.427,0,0,1-.559-.112,1.351,1.351,0,0,1-.441-.308,1.515,1.515,0,0,1-.3-.456,1.477,1.477,0,0,1-.11-.561m.11.21.03.031.02-.031-.02-.04Zm.05-.141c0,.022.017.043.04.07v-.07Zm.132.634-.019.022.019.017.017-.017Zm.032-.886h.028l-.01-.019Zm.018.124a.119.119,0,0,0,.074.041v-.041Zm.021-.453c0,.041.025.073.081.1l.009-.032a.052.052,0,0,0-.03-.052.143.143,0,0,0-.06-.015m.189.381a.107.107,0,0,0-.043-.086.549.549,0,0,0-.093-.056l-.015.019Zm-.118.574h.081a.062.062,0,0,0-.042-.062Zm.01-1.157h.03v-.03h-.03Zm.02.361.009.018.019-.018-.019-.018Zm.051.383h.038v-.03h-.038Zm.009-1.116.028.032.023-.032-.023-.039Zm.011.422.017.019v-.039Zm.04,1.376-.032.03.02.021.023-.038Zm.011-.985h.03v-.027Zm.03.241v-.07h-.03Zm-.021-.439.021.026.028-.026-.028-.041Zm.069.269.021.032.02-.032-.02-.041Zm.087.372a.063.063,0,0,0-.057.04.554.554,0,0,0-.03.072c.067,0,.1-.028.1-.082Zm-.057-1.325.022.03.029-.03-.029-.041Zm.073.168.019.034.03-.034-.03-.039Zm.027.9.031.032.018-.032-.018-.04Zm.031.091h.06l-.028-.032Zm0,.994h.032l-.032-.033Zm.011-1.478v.032l.021-.019Zm.131-.613.028-.028-.028-.03-.041.03Zm-.019.4h.028l-.009-.02Zm.058.292.021.031.02-.031-.02-.043Zm0,.271.021.029.02-.029-.02-.039Zm0,.413.021.027.02-.027-.02-.041Zm.021-.213a.268.268,0,0,0,.119.226.43.43,0,0,0,.251.086.358.358,0,0,0,.246-.092.273.273,0,0,0,.1-.229.361.361,0,0,0-.1-.262.336.336,0,0,0-.256-.11.328.328,0,0,0-.258.122.4.4,0,0,0-.1.259m.041-1.3.03.032.02-.032-.02-.039Zm0,.413.03.032.02-.032-.02-.039Zm.03.572.069-.03h-.069Zm.1-.441h.041l-.041-.03Zm.02.2.008.013.02-.021-.007-.02Zm.021,1.68h.058l-.026-.032Zm.069-2.16-.011.011.02.018.013-.018Zm.161.181-.1-.1v.022Zm-.021.381.021.031.018-.031-.018-.043Zm.051-.624c0,.039.013.065.041.073v-.073Zm.009.482.032.032.03-.032-.03-.039Zm.071.073h.1l-.067-.041h-.034Zm.133,1.706-.032-.071-.041.032Zm-.032-1.508h.06l-.04-.039-.02.012Zm.032-.824h.028l-.028-.028Zm.17.144-.021-.034H624.8Zm-.021,1.254v.031l.021-.023Zm.161-.845a.122.122,0,0,0-.036-.1c-.02-.023-.048-.047-.075-.075l-.029.03Zm-.14.29c0,.037.022.052.067.052l-.067-.071Zm.041.979.026.027.033-.027-.033-.043Zm.007-1.56h.032a.025.025,0,0,0-.013-.019Zm.032-.2a.158.158,0,0,0,.035.1.314.314,0,0,0,.085.077l.011-.032a.188.188,0,0,0-.038-.1.108.108,0,0,0-.093-.048m.06,2.029a.323.323,0,0,0-.04.058h.04Zm.041-2.119.019.028.031.011-.031-.069Zm.009,1.426.01.008.018-.02-.018-.007Zm.049-.845h.071v-.039Zm.071.485h.009l-.009-.043Zm.009,1.1h.03a.028.028,0,0,0-.009-.021Zm.064-.8h.026v-.042h-.026Zm.058-1.024a.1.1,0,0,0-.04.069h.04Z" transform="translate(-558.632 -55.479)" fill="#fff"/>
  <path id="Path_5397" data-name="Path 5397" d="M584.639,89.031a10.735,10.735,0,0,0-.6-4.119,4.7,4.7,0,0,0-2.792-2.3l-2.486-1.027a2.763,2.763,0,0,1-1.519-1.175,3.941,3.941,0,0,1-.327-1.946,4.583,4.583,0,0,1,.452-2.106,1.823,1.823,0,0,1,1.753-.917,2.074,2.074,0,0,1,1.766.788,3.792,3.792,0,0,1,.514,2.046v.755h3.243V77.373a5.448,5.448,0,0,0-1.464-3.641A5.186,5.186,0,0,0,579.23,72.1a5.031,5.031,0,0,0-4.164,1.835,7.383,7.383,0,0,0-1.4,4.585,7.633,7.633,0,0,0,.731,3.652,5.45,5.45,0,0,0,2.8,2.379l2.319.983a2.877,2.877,0,0,1,1.568,1.093,6.39,6.39,0,0,1,.314,2.46q0,.788-.032,1.414a2.534,2.534,0,0,1-.282,1.1c-.278.657-.96.98-2.043.98a1.973,1.973,0,0,1-1.762-.757,2.658,2.658,0,0,1-.547-1.641V89.113h-3.241v1.251a5.524,5.524,0,0,0,5.55,5.552q3.113-.032,4.386-1.979a8.848,8.848,0,0,0,1.214-4.906" transform="translate(-558.632 -55.479)" fill="#fff"/>
  <path id="Path_5398" data-name="Path 5398" d="M595.235,90.209a2.518,2.518,0,0,1-.628,1.784,2.282,2.282,0,0,1-1.584.579,2.211,2.211,0,0,1-1.537-.579,2.25,2.25,0,0,1-.673-1.784v-12.4a2.112,2.112,0,0,1,2.21-2.369,2.371,2.371,0,0,1,1.584.548,2.567,2.567,0,0,1,.628,1.821Zm3.241-12.391a5.36,5.36,0,0,0-5.453-5.721,5.457,5.457,0,0,0-3.693,1.413,5.352,5.352,0,0,0-1.762,4.3v12.4a5.246,5.246,0,0,0,1.762,4.262,5.391,5.391,0,0,0,3.693,1.445,5.4,5.4,0,0,0,5.453-5.723Z" transform="translate(-558.632 -55.479)" fill="#fff"/>
  <path id="Path_5399" data-name="Path 5399" d="M608.764,89.642q.033,2.933-2.478,2.931h-1.557V75.441h1.5a2.416,2.416,0,0,1,2.018.756,3.778,3.778,0,0,1,.516,2.144Zm3.244-11.292q-.062-5.962-5.7-6.059h-4.822V95.722h4.528q5.93,0,5.993-6.411Z" transform="translate(-558.632 -55.479)" fill="#fff"/>
  <path id="Path_5400" data-name="Path 5400" d="M622.284,90.691l.949,5.031h3.256l-5.065-23.43h-2.711l-5.079,23.43h3.258l.949-5.031ZM620.019,79.04h.065l1.59,8.506h-3.257Z" transform="translate(-558.632 -55.479)" fill="#fff"/>
</svg>
