<?xml version="1.0" encoding="UTF-8"?> <svg xmlns="http://www.w3.org/2000/svg" id="Primary_Logo" data-name="Primary Logo" viewBox="0 0 405.7 138.27"><g id="Icon"><g id="Block_2" data-name="Block 2"><g><path d="M31.59,124.02C19.33,98.83,9.15,63.35,2.61,21.55,28.91,6.81,54.42,1.9,77.9,2.69c5.52,28.98,11.58,61.67,11.82,99.96,0,0-36.87,21.53-58.13,21.38Z" style="fill: #b1cd53; stroke-width: 0px;"></path><path d="M31.81,126.63c-.08,0-.16,0-.24,0-.99,0-1.89-.58-2.33-1.47C16.65,99.29,6.55,63.6.03,21.95c-.17-1.08.35-2.15,1.3-2.68C25.64,5.65,51.44-.8,77.99.08c1.22.04,2.25.92,2.47,2.12,5.18,27.15,11.62,60.95,11.87,100.43,0,.93-.49,1.8-1.29,2.27-1.53.89-37.47,21.73-59.23,21.73ZM5.47,22.95c6.32,39.57,15.89,73.52,27.75,98.44,18.27-.8,47.4-16.61,53.89-20.25-.39-37.37-6.37-69.67-11.37-95.9-24.28-.45-47.91,5.51-70.27,17.71Z" style="fill: #1d1d1b; stroke-width: 0px;"></path></g><path d="M63.51,112.37c-3.72,1.93-7.66,2.61-11.23,3.86-1.73-8.82-2.91-15.24-4.55-24.3,4.19-1.95,8.42-4.01,12.69-6.16,1.11,9.29,2.2,18.69,3.28,28.22" style="fill: #fff; stroke-width: 0px;"></path><path d="M60.43,77.46c-4.41,2.14-8.78,4.24-13.12,6.29-.83-4.69-1.64-9.41-2.44-14.15,4.58-2.15,9.19-4.24,13.81-6.28.59,4.7,1.17,9.41,1.75,14.15" style="fill: #fff; stroke-width: 0px;"></path><path d="M43.12,85.76c-4.32,2.01-8.61,3.98-12.88,5.88-1.2-4.29-2.36-8.71-3.48-13.23,4.54-2.27,9.11-4.5,13.68-6.68.87,4.72,1.77,9.4,2.68,14.04" style="fill: #fff; stroke-width: 0px;"></path><path d="M46.6,107.36c-3.85,1.51-7.66,2.79-11.43,3.85-1.3-3.92-2.57-7.97-3.81-12.14,4.1-1.63,8.23-3.39,12.39-5.27.93,4.58,1.88,9.1,2.85,13.57" style="fill: #fff; stroke-width: 0px;"></path><path d="M38.18,63.7c-4.7,2.22-9.38,4.54-14.06,6.96-1.08-4.63-2.12-9.36-3.12-14.19,4.9-2.59,9.8-4.99,14.68-7.19.81,4.85,1.64,9.66,2.49,14.43" style="fill: #fff; stroke-width: 0px;"></path><path d="M56.98,56.02c-4.71,1.95-9.42,4-14.13,6.15-.78-4.78-1.56-9.58-2.31-14.4,4.89-2.09,9.76-3.98,14.62-5.69.62,4.63,1.22,9.27,1.82,13.94" style="fill: #fff; stroke-width: 0px;"></path><path d="M56.98,17.51l1.76,13.24,14.71-3.61-1.79-12s-7.59.89-14.68,2.38Z" style="fill: #fff; stroke-width: 0px;"></path><path d="M53.64,32c-4.93,1.5-9.9,3.24-14.88,5.21-.74-4.85-1.46-9.73-2.16-14.62,5.09-1.75,10.14-3.19,15.14-4.35.64,4.57,1.28,9.15,1.9,13.75" style="fill: #fff; stroke-width: 0px;"></path><path d="M34.2,39.36c-5,2.14-10.02,4.52-15.06,7.16-.94-4.96-1.83-10.01-2.67-15.14,5.19-2.61,10.34-4.88,15.46-6.84.74,4.97,1.49,9.91,2.27,14.81" style="fill: #fff; stroke-width: 0px;"></path></g><g id="Block_1" data-name="Block 1"><g><path d="M59.29,134.53c-6.3-27.3-8.27-64.15-5.27-106.36,28.94-8.47,54.89-7.53,77.61-1.5-1.11,29.48-2.54,62.7-10.89,100.06,0,0-40.75,12.71-61.45,7.8Z" style="fill: #53b3e5; stroke-width: 0px;"></path><path d="M70.71,138.27c-4.36,0-8.45-.35-12.02-1.2-.96-.23-1.71-.99-1.94-1.95-6.47-28.04-8.32-65.09-5.33-107.13.08-1.09.82-2.01,1.87-2.32,26.74-7.82,53.32-8.34,79.01-1.52,1.18.31,1.98,1.4,1.94,2.62-1.04,27.63-2.34,62.01-10.95,100.53-.2.91-.88,1.64-1.77,1.92-1.41.44-29.29,9.05-50.81,9.05ZM61.47,132.33c17.98,3.32,49.92-5.56,57.06-7.65,8-36.5,9.41-69.32,10.42-96-23.57-5.88-47.93-5.37-72.45,1.5-2.71,39.98-1,75.21,4.97,102.15Z" style="fill: #1d1d1b; stroke-width: 0px;"></path></g><polygon points="82.72 103.91 81.7 131.81 94.02 129.95 97.27 100.67 82.72 103.91" style="fill: #fff; stroke-width: 0px;"></polygon><path d="M113.52,110.05c-4.71,1.58-9.28,3.02-13.72,4.28.63-4.84,1.24-9.63,1.82-14.38,4.7-1.19,9.47-2.45,14.32-3.76-.76,4.54-1.57,9.15-2.42,13.85" style="fill: #fff; stroke-width: 0px;"></path><polygon points="65.27 107.65 66.3 119.99 78.64 118.77 78.64 104.76 65.27 107.65" style="fill: #fff; stroke-width: 0px;"></polygon><path d="M117.06,88.65c-4.91,1.13-9.76,2.26-14.57,3.37.56-4.71,1.1-9.38,1.62-14.01,4.96-.91,9.93-1.75,14.9-2.52-.6,4.32-1.25,8.7-1.95,13.16" style="fill: #fff; stroke-width: 0px;"></path><path d="M98.01,93.01c-4.78,1.09-9.51,2.16-14.2,3.18.24-4.75.51-9.54.79-14.34,4.95-1.07,9.91-2.07,14.87-3.03-.48,4.71-.97,9.43-1.47,14.19" style="fill: #fff; stroke-width: 0px;"></path><path d="M79.01,97.35c-4.66,1-9.28,1.95-13.87,2.84-.21-4.46-.35-9.02-.43-13.67,4.94-1.2,9.89-2.35,14.83-3.45-.21,4.8-.38,9.56-.54,14.28" style="fill: #fff; stroke-width: 0px;"></path><polygon points="106.3 57.3 104.85 70.8 119.74 69.14 121.19 55.82 106.3 57.3" style="fill: #fff; stroke-width: 0px;"></polygon><path d="M99.96,71.29c-5.03.84-10.08,1.78-15.14,2.83.31-4.83.63-9.68.98-14.55,5.23-.94,10.4-1.69,15.52-2.27-.44,4.65-.89,9.31-1.35,13.99" style="fill: #fff; stroke-width: 0px;"></path><polygon points="64.71 64.76 64.71 78.82 79.91 75.05 80.59 60.84 64.71 64.76" style="fill: #fff; stroke-width: 0px;"></polygon><path d="M108.51,33.78l-1.45,13.28h15.15l1.12-12.09s-7.59-.94-14.82-1.19Z" style="fill: #fff; stroke-width: 0px;"></path><path d="M87.49,34.54l-1.19,14.72s11.06-1.19,15.83-1.87l1.19-14.01s-11.74.82-15.83,1.16Z" style="fill: #fff; stroke-width: 0px;"></path><path d="M81.49,50.48c-5.35.96-10.78,2.16-16.28,3.61.2-5.04.46-10.17.79-15.35,5.64-1.38,11.17-2.44,16.6-3.2-.4,5.01-.77,9.99-1.11,14.94" style="fill: #fff; stroke-width: 0px;"></path></g></g><g id="Text"><g id="ONLINE"><path d="M152.55,98.44c.85-2.9,2.13-5.47,3.83-7.71,1.7-2.23,3.84-4.01,6.41-5.33,2.57-1.32,5.56-1.98,8.96-1.98s6.38.66,8.93,1.98c2.55,1.32,4.68,3.1,6.38,5.33s2.98,4.8,3.83,7.71c.85,2.9,1.27,5.96,1.27,9.17s-.42,6.27-1.27,9.17c-.85,2.91-2.13,5.46-3.83,7.68-1.7,2.21-3.83,3.98-6.38,5.3-2.55,1.32-5.53,1.98-8.93,1.98s-6.39-.66-8.96-1.98c-2.57-1.32-4.71-3.09-6.41-5.3-1.7-2.21-2.98-4.77-3.83-7.68-.85-2.9-1.28-5.96-1.28-9.17s.43-6.26,1.28-9.17ZM156.35,115.05c.63,2.45,1.6,4.64,2.92,6.57,1.32,1.93,3.01,3.48,5.07,4.65,2.07,1.17,4.53,1.76,7.41,1.76s5.33-.59,7.38-1.76c2.04-1.17,3.72-2.72,5.04-4.65,1.32-1.93,2.29-4.12,2.92-6.57.63-2.45.94-4.93.94-7.45s-.31-5.05-.94-7.48c-.63-2.43-1.6-4.61-2.92-6.54-1.32-1.93-3-3.48-5.04-4.65-2.05-1.17-4.51-1.76-7.38-1.76s-5.34.59-7.41,1.76c-2.07,1.17-3.76,2.72-5.07,4.65-1.32,1.93-2.29,4.11-2.92,6.54-.63,2.43-.94,4.92-.94,7.48s.31,5,.94,7.45Z" style="fill: #1d1d1b; stroke-width: 0px;"></path><path d="M212.2,84.39l25.27,39.28h.12v-39.28h4.13v46.44h-4.61l-25.27-39.28h-.12v39.28h-4.13v-46.44h4.62Z" style="fill: #1d1d1b; stroke-width: 0px;"></path><path d="M263.58,84.39v42.66h24.29v3.77h-28.42v-46.44h4.13Z" style="fill: #1d1d1b; stroke-width: 0px;"></path><path d="M305.55,84.39v46.44h-4.13v-46.44h4.13Z" style="fill: #1d1d1b; stroke-width: 0px;"></path><path d="M328.2,84.39l25.27,39.28h.12v-39.28h4.13v46.44h-4.61l-25.27-39.28h-.12v39.28h-4.13v-46.44h4.62Z" style="fill: #1d1d1b; stroke-width: 0px;"></path><path d="M405.4,84.39v3.77h-25.81v16.78h24.17v3.77h-24.17v18.34h26.12v3.77h-30.25v-46.44h29.94Z" style="fill: #1d1d1b; stroke-width: 0px;"></path></g><g id="BLOCKS"><path d="M174.35,25.61c2.03,0,3.88.19,5.56.56,1.67.37,3.11.99,4.3,1.84,1.19.85,2.12,1.98,2.78,3.4.66,1.41.99,3.16.99,5.24,0,2.24-.49,4.12-1.46,5.61-.98,1.5-2.42,2.72-4.33,3.68,2.63.79,4.59,2.17,5.88,4.15,1.29,1.97,1.94,4.36,1.94,7.14,0,2.24-.42,4.19-1.25,5.83-.84,1.64-1.96,2.98-3.38,4.02-1.41,1.04-3.03,1.81-4.84,2.31-1.81.5-3.67.75-5.59.75h-20.67V25.61h20.07ZM173.15,43.63c1.67,0,3.05-.42,4.12-1.25,1.08-.83,1.61-2.18,1.61-4.05,0-1.04-.18-1.89-.54-2.56-.36-.66-.84-1.18-1.43-1.56s-1.28-.63-2.06-.78c-.78-.15-1.58-.22-2.42-.22h-8.78v10.41h9.5ZM173.69,62.52c.92,0,1.79-.09,2.63-.28.84-.19,1.57-.5,2.21-.94.64-.44,1.14-1.03,1.52-1.78.38-.75.57-1.7.57-2.87,0-2.29-.62-3.92-1.85-4.89-1.23-.98-2.87-1.47-4.9-1.47h-10.22v12.22h10.04Z" style="fill: #1d1d1b; stroke-width: 0px;"></path><path d="M207.08,25.61v36.28h20.79v8.23h-30.17V25.61h9.38Z" style="fill: #1d1d1b; stroke-width: 0px;"></path><path d="M234.08,38.8c.96-2.85,2.33-5.33,4.12-7.45,1.79-2.12,3.99-3.78,6.6-4.99,2.61-1.2,5.54-1.81,8.81-1.81s6.25.6,8.84,1.81c2.59,1.21,4.78,2.87,6.57,4.99,1.79,2.12,3.17,4.6,4.12,7.45.96,2.85,1.43,5.93,1.43,9.26s-.48,6.27-1.43,9.07c-.96,2.81-2.33,5.25-4.12,7.33-1.79,2.08-3.98,3.71-6.57,4.89-2.59,1.19-5.54,1.78-8.84,1.78s-6.2-.59-8.81-1.78c-2.61-1.18-4.81-2.81-6.6-4.89-1.79-2.08-3.17-4.52-4.12-7.33-.96-2.81-1.43-5.83-1.43-9.07s.48-6.41,1.43-9.26ZM242.65,53.51c.42,1.77,1.08,3.36,2,4.77.92,1.41,2.11,2.55,3.58,3.4,1.47.85,3.27,1.28,5.38,1.28s3.9-.42,5.38-1.28c1.47-.85,2.67-1.99,3.58-3.4.92-1.41,1.58-3,2-4.77.42-1.77.63-3.58.63-5.45s-.21-3.84-.63-5.67c-.42-1.83-1.08-3.46-2-4.89-.92-1.43-2.11-2.58-3.58-3.43-1.47-.85-3.27-1.28-5.38-1.28s-3.9.43-5.38,1.28c-1.47.85-2.67,1.99-3.58,3.43-.92,1.43-1.58,3.07-2,4.89-.42,1.83-.63,3.72-.63,5.67s.21,3.69.63,5.45Z" style="fill: #1d1d1b; stroke-width: 0px;"></path><path d="M309.71,37.49c-.56-.93-1.25-1.75-2.09-2.46-.84-.71-1.78-1.26-2.84-1.65-1.06-.39-2.16-.59-3.32-.59-2.11,0-3.9.43-5.38,1.28-1.47.85-2.67,1.99-3.58,3.43-.92,1.43-1.58,3.07-2,4.89-.42,1.83-.63,3.72-.63,5.67s.21,3.69.63,5.45c.42,1.77,1.08,3.36,2,4.77.92,1.41,2.11,2.55,3.58,3.4,1.47.85,3.27,1.28,5.38,1.28,2.87,0,5.11-.91,6.72-2.74,1.61-1.83,2.6-4.24,2.96-7.23h9.08c-.24,2.79-.86,5.3-1.85,7.54-1,2.24-2.31,4.16-3.94,5.74-1.63,1.58-3.54,2.78-5.73,3.61-2.19.83-4.6,1.25-7.23,1.25-3.27,0-6.2-.59-8.81-1.78-2.61-1.18-4.81-2.81-6.6-4.89-1.79-2.08-3.17-4.52-4.12-7.33-.96-2.81-1.43-5.83-1.43-9.07s.48-6.41,1.43-9.26c.96-2.85,2.33-5.33,4.12-7.45,1.79-2.12,3.99-3.78,6.6-4.99,2.61-1.2,5.54-1.81,8.81-1.81,2.35,0,4.57.35,6.66,1.06,2.09.71,3.96,1.74,5.61,3.09,1.65,1.35,3.02,3.02,4.09,5.02,1.08,1.99,1.75,4.28,2.03,6.86h-9.08c-.16-1.12-.52-2.15-1.08-3.09Z" style="fill: #1d1d1b; stroke-width: 0px;"></path><path d="M337.36,25.61v18.45l16.67-18.45h11.71l-16.67,17.58,18.28,26.93h-11.77l-12.84-20.01-5.38,5.67v14.34h-9.38V25.61h9.38Z" style="fill: #1d1d1b; stroke-width: 0px;"></path><path d="M379.66,59.15c.52,1.04,1.2,1.88,2.06,2.53.86.65,1.86,1.12,3.02,1.43,1.15.31,2.35.47,3.58.47.84,0,1.73-.07,2.69-.22.96-.15,1.85-.43,2.69-.84.84-.42,1.53-.99,2.09-1.71.56-.73.84-1.65.84-2.77,0-1.2-.37-2.18-1.1-2.93-.74-.75-1.7-1.37-2.9-1.87-1.19-.5-2.55-.94-4.06-1.31-1.52-.37-3.05-.79-4.6-1.25-1.59-.42-3.15-.92-4.66-1.53-1.51-.6-2.87-1.38-4.06-2.34-1.19-.96-2.16-2.15-2.9-3.58-.74-1.43-1.1-3.17-1.1-5.21,0-2.29.47-4.27,1.4-5.95.94-1.68,2.16-3.09,3.67-4.21,1.51-1.12,3.23-1.95,5.14-2.49,1.91-.54,3.82-.81,5.73-.81,2.23,0,4.37.26,6.42.78,2.05.52,3.87,1.36,5.47,2.53,1.59,1.16,2.86,2.65,3.79,4.46.94,1.81,1.4,4,1.4,6.58h-9.08c-.08-1.33-.35-2.43-.81-3.3-.46-.87-1.07-1.56-1.82-2.06-.76-.5-1.62-.85-2.6-1.06-.98-.21-2.04-.31-3.2-.31-.76,0-1.51.08-2.27.25-.76.17-1.45.46-2.06.87-.62.42-1.12.93-1.52,1.56-.4.62-.6,1.41-.6,2.37,0,.87.16,1.58.48,2.12.32.54.95,1.04,1.88,1.5s2.23.91,3.88,1.37c1.65.46,3.81,1.04,6.48,1.75.8.17,1.9.47,3.31.9s2.82,1.13,4.21,2.09c1.39.96,2.6,2.23,3.61,3.83,1.02,1.6,1.52,3.65,1.52,6.14,0,2.04-.38,3.93-1.14,5.67-.76,1.75-1.88,3.25-3.38,4.52-1.49,1.27-3.35,2.25-5.56,2.96-2.21.71-4.77,1.06-7.68,1.06-2.35,0-4.63-.3-6.84-.9-2.21-.6-4.16-1.55-5.85-2.84-1.69-1.29-3.04-2.93-4.03-4.93-1-2-1.47-4.36-1.43-7.11h9.08c0,1.5.26,2.76.78,3.8Z" style="fill: #1d1d1b; stroke-width: 0px;"></path></g></g></svg> 